Mekorot-Vilna.ufo
<glyph name="comma" format="2">
  <advance width="250"/>
  <unicode hex="002C"/>
  <outline>
    <contour>
      <point x="57" y="-180" type="curve"/>
      <point x="46" y="-158" type="line"/>
      <point x="121" y="-106"/>
      <point x="155" y="-64"/>
      <point x="155" y="-26" type="curve" smooth="yes"/>
      <point x="155" y="-13"/>
      <point x="147" y="-4"/>
      <point x="136" y="-4" type="curve" smooth="yes"/>
      <point x="134" y="-4"/>
      <point x="132" y="-4"/>
      <point x="129" y="-5" type="curve" smooth="yes"/>
      <point x="123" y="-6"/>
      <point x="117" y="-6"/>
      <point x="112" y="-6" type="curve" smooth="yes"/>
      <point x="69" y="-6"/>
      <point x="39" y="26"/>
      <point x="39" y="72" type="curve" smooth="yes"/>
      <point x="39" y="122"/>
      <point x="72" y="155"/>
      <point x="122" y="155" type="curve" smooth="yes"/>
      <point x="182" y="155"/>
      <point x="223" y="108"/>
      <point x="223" y="39" type="curve" smooth="yes"/>
      <point x="223" y="-47"/>
      <point x="173" y="-113"/>
    </contour>
  </outline>
</glyph>
<glyph name="two" format="2">
  <advance width="500"/>
  <unicode hex="0032"/>
  <outline>
    <contour>
      <point x="478" y="211" type="line"/>
      <point x="433" y="0" type="line"/>
      <point x="17" y="0" type="line"/>
      <point x="17" y="23" type="line"/>
      <point x="163" y="179"/>
      <point x="198" y="221"/>
      <point x="249" y="299" type="curve" smooth="yes"/>
      <point x="281" y="348"/>
      <point x="300" y="403"/>
      <point x="300" y="447" type="curve" smooth="yes"/>
      <point x="300" y="470"/>
      <point x="292" y="498"/>
      <point x="280" y="519" type="curve" smooth="yes"/>
      <point x="258" y="555"/>
      <point x="225" y="574"/>
      <point x="181" y="574" type="curve" smooth="yes"/>
      <point x="127" y="574"/>
      <point x="90" y="546"/>
      <point x="59" y="484" type="curve"/>
      <point x="31" y="484" type="line"/>
      <point x="59" y="559"/>
      <point x="79" y="593"/>
      <point x="118" y="632" type="curve" smooth="yes"/>
      <point x="153" y="668"/>
      <point x="201" y="688"/>
      <point x="251" y="688" type="curve" smooth="yes"/>
      <point x="359" y="688"/>
      <point x="436" y="612"/>
      <point x="436" y="505" type="curve" smooth="yes"/>
      <point x="436" y="429"/>
      <point x="401" y="362"/>
      <point x="322" y="287" type="curve" smooth="yes"/>
      <point x="160" y="133" type="line"/>
      <point x="311" y="133" type="line" smooth="yes"/>
      <point x="413" y="133"/>
      <point x="425" y="139"/>
      <point x="454" y="211" type="curve"/>
    </contour>
  </outline>
</glyph>
<glyph name="D" format="2">
  <advance width="722"/>
  <unicode hex="0044"/>
  <outline>
    <contour>
      <point x="97" y="91" type="curve" smooth="yes"/>
      <point x="97" y="584" type="line" smooth="yes"/>
      <point x="97" y="630"/>
      <point x="78" y="645"/>
      <point x="14" y="651" type="curve"/>
      <point x="14" y="676" type="line"/>
      <point x="319" y="676" type="line" smooth="yes"/>
      <point x="550" y="676"/>
      <point x="690" y="551"/>
      <point x="690" y="345" type="curve" smooth="yes"/>
      <point x="690" y="138"/>
      <point x="546" y="0"/>
      <point x="330" y="0" type="curve" smooth="yes"/>
      <point x="14" y="0" type="line"/>
      <point x="14" y="25" type="line"/>
      <point x="72" y="27"/>
      <point x="97" y="47"/>
    </contour>
    <contour>
      <point x="259" y="607" type="curve" smooth="yes"/>
      <point x="259" y="93" type="line" smooth="yes"/>
      <point x="259" y="48"/>
      <point x="272" y="35"/>
      <point x="317" y="35" type="curve" smooth="yes"/>
      <point x="382" y="35"/>
      <point x="430" y="58"/>
      <point x="464" y="104" type="curve" smooth="yes"/>
      <point x="496" y="149"/>
      <point x="516" y="235"/>
      <point x="516" y="330" type="curve" smooth="yes"/>
      <point x="516" y="414"/>
      <point x="502" y="487"/>
      <point x="475" y="540" type="curve" smooth="yes"/>
      <point x="441" y="609"/>
      <point x="390" y="642"/>
      <point x="318" y="642" type="curve" smooth="yes"/>
      <point x="279" y="642"/>
      <point x="259" y="630"/>
    </contour>
  </outline>
</glyph>
<glyph name="H" format="2">
  <advance width="778"/>
  <unicode hex="0048"/>
  <outline>
    <contour>
      <point x="509" y="326" type="line"/>
      <point x="268" y="326" type="line"/>
      <point x="268" y="96" type="line" smooth="yes"/>
      <point x="268" y="47"/>
      <point x="285" y="33"/>
      <point x="358" y="25" type="curve"/>
      <point x="358" y="0" type="line"/>
      <point x="21" y="0" type="line"/>
      <point x="21" y="25" type="line"/>
      <point x="91" y="34"/>
      <point x="106" y="47"/>
      <point x="106" y="96" type="curve" smooth="yes"/>
      <point x="106" y="580" type="line" smooth="yes"/>
      <point x="106" y="630"/>
      <point x="88" y="645"/>
      <point x="21" y="651" type="curve"/>
      <point x="21" y="676" type="line"/>
      <point x="358" y="676" type="line"/>
      <point x="358" y="651" type="line"/>
      <point x="288" y="646"/>
      <point x="268" y="630"/>
      <point x="268" y="580" type="curve" smooth="yes"/>
      <point x="268" y="373" type="line"/>
      <point x="509" y="373" type="line"/>
      <point x="509" y="580" type="line" smooth="yes"/>
      <point x="509" y="630"/>
      <point x="489" y="646"/>
      <point x="419" y="651" type="curve"/>
      <point x="419" y="676" type="line"/>
      <point x="759" y="676" type="line"/>
      <point x="759" y="651" type="line"/>
      <point x="691" y="646"/>
      <point x="671" y="630"/>
      <point x="671" y="580" type="curve" smooth="yes"/>
      <point x="671" y="96" type="line" smooth="yes"/>
      <point x="671" y="47"/>
      <point x="687" y="34"/>
      <point x="759" y="25" type="curve"/>
      <point x="759" y="0" type="line"/>
      <point x="419" y="0" type="line"/>
      <point x="419" y="25" type="line"/>
      <point x="492" y="33"/>
      <point x="509" y="47"/>
      <point x="509" y="96" type="curve" smooth="yes"/>
    </contour>
  </outline>
</glyph>
<glyph name="M" format="2">
  <advance width="944"/>
  <unicode hex="004D"/>
  <outline>
    <contour>
      <point x="678" y="609" type="line"/>
      <point x="426" y="0" type="line"/>
      <point x="399" y="0" type="line"/>
      <point x="147" y="594" type="line"/>
      <point x="147" y="124" type="line" smooth="yes"/>
      <point x="147" y="50"/>
      <point x="166" y="31"/>
      <point x="248" y="25" type="curve"/>
      <point x="248" y="0" type="line"/>
      <point x="14" y="0" type="line"/>
      <point x="14" y="25" type="line"/>
      <point x="92" y="33"/>
      <point x="105" y="45"/>
      <point x="105" y="105" type="curve" smooth="yes"/>
      <point x="105" y="580" type="line" smooth="yes"/>
      <point x="105" y="632"/>
      <point x="89" y="645"/>
      <point x="16" y="651" type="curve"/>
      <point x="16" y="676" type="line"/>
      <point x="269" y="676" type="line"/>
      <point x="469" y="204" type="line"/>
      <point x="669" y="676" type="line"/>
      <point x="921" y="676" type="line"/>
      <point x="921" y="651" type="line"/>
      <point x="848" y="646"/>
      <point x="833" y="631"/>
      <point x="833" y="559" type="curve" smooth="yes"/>
      <point x="833" y="117" type="line" smooth="yes"/>
      <point x="833" y="46"/>
      <point x="843" y="35"/>
      <point x="921" y="25" type="curve"/>
      <point x="921" y="0" type="line"/>
      <point x="589" y="0" type="line"/>
      <point x="589" y="25" type="line"/>
      <point x="664" y="32"/>
      <point x="678" y="44"/>
      <point x="678" y="100" type="curve" smooth="yes"/>
    </contour>
  </outline>
</glyph>
<glyph name="R" format="2">
  <advance width="722"/>
  <unicode hex="0052"/>
  <outline>
    <contour>
      <point x="715" y="25" type="curve"/>
      <point x="715" y="0" type="line"/>
      <point x="510" y="0" type="line"/>
      <point x="303" y="313" type="line"/>
      <point x="276" y="313" type="line"/>
      <point x="276" y="117" type="line" smooth="yes"/>
      <point x="276" y="46"/>
      <point x="286" y="35"/>
      <point x="364" y="25" type="curve"/>
      <point x="364" y="0" type="line"/>
      <point x="26" y="0" type="line"/>
      <point x="26" y="25" type="line"/>
      <point x="104" y="34"/>
      <point x="114" y="44"/>
      <point x="114" y="117" type="curve" smooth="yes"/>
      <point x="114" y="559" type="line" smooth="yes"/>
      <point x="114" y="631"/>
      <point x="100" y="646"/>
      <point x="26" y="651" type="curve"/>
      <point x="26" y="676" type="line"/>
      <point x="348" y="676" type="line" smooth="yes"/>
      <point x="531" y="676"/>
      <point x="630" y="613"/>
      <point x="630" y="498" type="curve" smooth="yes"/>
      <point x="630" y="453"/>
      <point x="614" y="413"/>
      <point x="585" y="386" type="curve" smooth="yes"/>
      <point x="557" y="361"/>
      <point x="532" y="348"/>
      <point x="473" y="329" type="curve"/>
      <point x="674" y="44" type="line" smooth="yes"/>
      <point x="684" y="31"/>
      <point x="697" y="25"/>
    </contour>
    <contour>
      <point x="276" y="600" type="curve" smooth="yes"/>
      <point x="276" y="345" type="line"/>
      <point x="352" y="346"/>
      <point x="386" y="353"/>
      <point x="412" y="370" type="curve" smooth="yes"/>
      <point x="444" y="391"/>
      <point x="459" y="430"/>
      <point x="459" y="494" type="curve" smooth="yes"/>
      <point x="459" y="599"/>
      <point x="422" y="642"/>
      <point x="330" y="642" type="curve" smooth="yes"/>
      <point x="305" y="642"/>
      <point x="289" y="637"/>
      <point x="283" y="627" type="curve" smooth="yes"/>
      <point x="280" y="621"/>
      <point x="276" y="606"/>
    </contour>
  </outline>
</glyph>
<glyph name="z" format="2">
  <advance width="444"/>
  <unicode hex="007A"/>
  <outline>
    <contour>
      <point x="420" y="160" type="line"/>
      <point x="404" y="0" type="line"/>
      <point x="21" y="0" type="line"/>
      <point x="21" y="25" type="line"/>
      <point x="255" y="429" type="line"/>
      <point x="115" y="430"/>
      <point x="89" y="414"/>
      <point x="64" y="319" type="curve"/>
      <point x="38" y="319" type="line"/>
      <point x="45" y="461" type="line"/>
      <point x="416" y="461" type="line"/>
      <point x="416" y="435" type="line"/>
      <point x="185" y="32" type="line"/>
      <point x="214" y="32" type="line" smooth="yes"/>
      <point x="294" y="32"/>
      <point x="327" y="45"/>
      <point x="359" y="89" type="curve" smooth="yes"/>
      <point x="375" y="110"/>
      <point x="383" y="128"/>
      <point x="392" y="160" type="curve"/>
    </contour>
  </outline>
</glyph>
<glyph name="uni0595" format="2">
  <advance width="0"/>
  <unicode hex="0595"/>
  <outline>
    <contour>
      <point x="-48" y="668" type="curve" smooth="yes"/>
      <point x="-72" y="668" type="line" smooth="yes"/>
      <point x="-81" y="668"/>
      <point x="-88" y="674"/>
      <point x="-88" y="682" type="curve" smooth="yes"/>
      <point x="-88" y="838" type="line" smooth="yes"/>
      <point x="-88" y="846"/>
      <point x="-81" y="852"/>
      <point x="-72" y="852" type="curve" smooth="yes"/>
      <point x="-48" y="852" type="line" smooth="yes"/>
      <point x="-39" y="852"/>
      <point x="-32" y="846"/>
      <point x="-32" y="838" type="curve" smooth="yes"/>
      <point x="-32" y="682" type="line" smooth="yes"/>
      <point x="-32" y="674"/>
      <point x="-39" y="668"/>
    </contour>
    <contour>
      <point x="50" y="740" type="curve" smooth="yes"/>
      <point x="71" y="740"/>
      <point x="88" y="723"/>
      <point x="88" y="702" type="curve" smooth="yes"/>
      <point x="88" y="682"/>
      <point x="71" y="665"/>
      <point x="50" y="665" type="curve" smooth="yes"/>
      <point x="29" y="665"/>
      <point x="12" y="682"/>
      <point x="12" y="702" type="curve" smooth="yes"/>
      <point x="12" y="723"/>
      <point x="29" y="740"/>
    </contour>
    <contour>
      <point x="50" y="855" type="curve" smooth="yes"/>
      <point x="71" y="855"/>
      <point x="88" y="838"/>
      <point x="88" y="818" type="curve" smooth="yes"/>
      <point x="88" y="797"/>
      <point x="71" y="780"/>
      <point x="50" y="780" type="curve" smooth="yes"/>
      <point x="29" y="780"/>
      <point x="12" y="797"/>
      <point x="12" y="818" type="curve" smooth="yes"/>
      <point x="12" y="838"/>
      <point x="29" y="855"/>
    </contour>
  </outline>
</glyph>
<glyph name="uni0597" format="2">
  <advance width="0"/>
  <unicode hex="0597"/>
  <outline>
    <contour>
      <point x="-61" y="738" type="curve" smooth="yes"/>
      <point x="-73" y="744"/>
      <point x="-73" y="766"/>
      <point x="-61" y="772" type="curve" smooth="yes"/>
      <point x="-39" y="783"/>
      <point x="-21" y="805"/>
      <point x="-13" y="834" type="curve" smooth="yes"/>
      <point x="-9" y="848"/>
      <point x="8" y="849"/>
      <point x="13" y="833" type="curve" smooth="yes"/>
      <point x="21" y="805"/>
      <point x="39" y="782"/>
      <point x="61" y="772" type="curve" smooth="yes"/>
      <point x="73" y="766"/>
      <point x="73" y="744"/>
      <point x="61" y="738" type="curve" smooth="yes"/>
      <point x="39" y="727"/>
      <point x="21" y="705"/>
      <point x="13" y="676" type="curve" smooth="yes"/>
      <point x="9" y="662"/>
      <point x="-9" y="661"/>
      <point x="-13" y="676" type="curve" smooth="yes"/>
      <point x="-21" y="705"/>
      <point x="-39" y="727"/>
    </contour>
  </outline>
</glyph>
<glyph name="uni059B" format="2">
  <advance width="0"/>
  <unicode hex="059B"/>
  <outline>
    <contour>
      <point x="-47" y="-80" type="curve" smooth="yes"/>
      <point x="-26" y="-80"/>
      <point x="-10" y="-97"/>
      <point x="-10" y="-118" type="curve" smooth="yes"/>
      <point x="-10" y="-138"/>
      <point x="-26" y="-155"/>
      <point x="-47" y="-155" type="curve" smooth="yes"/>
      <point x="-68" y="-155"/>
      <point x="-85" y="-138"/>
      <point x="-85" y="-118" type="curve" smooth="yes"/>
      <point x="-85" y="-97"/>
      <point x="-68" y="-80"/>
    </contour>
    <contour>
      <point x="56" y="-57" type="curve" smooth="yes"/>
      <point x="57" y="-50"/>
      <point x="63" y="-45"/>
      <point x="70" y="-45" type="curve" smooth="yes"/>
      <point x="78" y="-45"/>
      <point x="85" y="-51"/>
      <point x="85" y="-59" type="curve" smooth="yes"/>
      <point x="82" y="-136"/>
      <point x="54" y="-217"/>
      <point x="-4" y="-259" type="curve" smooth="yes"/>
      <point x="-9" y="-263"/>
      <point x="-15" y="-265"/>
      <point x="-22" y="-265" type="curve" smooth="yes"/>
      <point x="-38" y="-265"/>
      <point x="-52" y="-252"/>
      <point x="-52" y="-235" type="curve" smooth="yes"/>
      <point x="-52" y="-225"/>
      <point x="-46" y="-215"/>
      <point x="-38" y="-211" type="curve" smooth="yes"/>
      <point x="15" y="-184"/>
      <point x="41" y="-153"/>
    </contour>
  </outline>
</glyph>
<glyph name="uni059E" format="2">
  <advance width="0"/>
  <unicode hex="059E"/>
  <outline>
    <contour>
      <point x="20" y="677" type="curve" smooth="yes"/>
      <point x="19" y="670"/>
      <point x="13" y="665"/>
      <point x="6" y="665" type="curve" smooth="yes"/>
      <point x="-2" y="665"/>
      <point x="-8" y="671"/>
      <point x="-8" y="679" type="curve" smooth="yes"/>
      <point x="-6" y="756"/>
      <point x="23" y="837"/>
      <point x="81" y="879" type="curve" smooth="yes"/>
      <point x="86" y="883"/>
      <point x="92" y="885"/>
      <point x="98" y="885" type="curve" smooth="yes"/>
      <point x="115" y="885"/>
      <point x="128" y="872"/>
      <point x="128" y="855" type="curve" smooth="yes"/>
      <point x="128" y="845"/>
      <point x="123" y="835"/>
      <point x="115" y="831" type="curve" smooth="yes"/>
      <point x="62" y="804"/>
      <point x="36" y="773"/>
    </contour>
    <contour>
      <point x="-100" y="677" type="curve" smooth="yes"/>
      <point x="-101" y="670"/>
      <point x="-107" y="665"/>
      <point x="-114" y="665" type="curve" smooth="yes"/>
      <point x="-122" y="665"/>
      <point x="-128" y="671"/>
      <point x="-128" y="679" type="curve" smooth="yes"/>
      <point x="-126" y="756"/>
      <point x="-97" y="837"/>
      <point x="-39" y="879" type="curve" smooth="yes"/>
      <point x="-34" y="883"/>
      <point x="-28" y="885"/>
      <point x="-22" y="885" type="curve" smooth="yes"/>
      <point x="-5" y="885"/>
      <point x="8" y="872"/>
      <point x="8" y="855" type="curve" smooth="yes"/>
      <point x="8" y="845"/>
      <point x="3" y="835"/>
      <point x="-5" y="831" type="curve" smooth="yes"/>
      <point x="-58" y="804"/>
      <point x="-84" y="773"/>
    </contour>
  </outline>
</glyph>
<glyph name="uni059F" format="2">
  <advance width="0"/>
  <unicode hex="059F"/>
  <outline>
    <contour>
      <point x="111" y="841" type="curve" smooth="yes"/>
      <point x="86" y="831"/>
      <point x="72" y="803"/>
      <point x="82" y="778" type="curve" smooth="yes"/>
      <point x="91" y="753"/>
      <point x="119" y="740"/>
      <point x="144" y="749" type="curve" smooth="yes"/>
      <point x="169" y="758"/>
      <point x="182" y="786"/>
      <point x="173" y="811" type="curve" smooth="yes"/>
      <point x="164" y="837"/>
      <point x="136" y="850"/>
    </contour>
    <contour>
      <point x="60" y="737" type="line" smooth="yes"/>
      <point x="64" y="744"/>
      <point x="63" y="748"/>
      <point x="57" y="757" type="curve" smooth="yes"/>
      <point x="30" y="802"/>
      <point x="50" y="862"/>
      <point x="100" y="881" type="curve" smooth="yes"/>
      <point x="144" y="897"/>
      <point x="193" y="874"/>
      <point x="209" y="830" type="curve" smooth="yes"/>
      <point x="225" y="786"/>
      <point x="202" y="737"/>
      <point x="158" y="721" type="curve" smooth="yes"/>
      <point x="142" y="715"/>
      <point x="125" y="715"/>
      <point x="110" y="719" type="curve" smooth="yes"/>
      <point x="102" y="720"/>
      <point x="98" y="718"/>
      <point x="96" y="713" type="curve" smooth="yes"/>
      <point x="83" y="674" type="line" smooth="yes"/>
      <point x="80" y="666"/>
      <point x="75" y="664"/>
      <point x="67" y="667" type="curve" smooth="yes"/>
      <point x="38" y="677" type="line" smooth="yes"/>
      <point x="30" y="680"/>
      <point x="29" y="686"/>
      <point x="33" y="693" type="curve" smooth="yes"/>
    </contour>
    <contour>
      <point x="-111" y="841" type="curve" smooth="yes"/>
      <point x="-136" y="850"/>
      <point x="-164" y="837"/>
      <point x="-173" y="811" type="curve" smooth="yes"/>
      <point x="-182" y="786"/>
      <point x="-169" y="758"/>
      <point x="-144" y="749" type="curve" smooth="yes"/>
      <point x="-119" y="740"/>
      <point x="-91" y="753"/>
      <point x="-82" y="778" type="curve" smooth="yes"/>
      <point x="-72" y="803"/>
      <point x="-86" y="831"/>
    </contour>
    <contour>
      <point x="-60" y="737" type="curve" smooth="yes"/>
      <point x="-33" y="693" type="line" smooth="yes"/>
      <point x="-29" y="686"/>
      <point x="-30" y="680"/>
      <point x="-38" y="677" type="curve" smooth="yes"/>
      <point x="-67" y="667" type="line" smooth="yes"/>
      <point x="-75" y="664"/>
      <point x="-80" y="666"/>
      <point x="-83" y="674" type="curve" smooth="yes"/>
      <point x="-96" y="713" type="line" smooth="yes"/>
      <point x="-98" y="718"/>
      <point x="-102" y="720"/>
      <point x="-110" y="719" type="curve" smooth="yes"/>
      <point x="-125" y="715"/>
      <point x="-142" y="715"/>
      <point x="-158" y="721" type="curve" smooth="yes"/>
      <point x="-202" y="737"/>
      <point x="-225" y="786"/>
      <point x="-209" y="830" type="curve" smooth="yes"/>
      <point x="-193" y="874"/>
      <point x="-144" y="897"/>
      <point x="-100" y="881" type="curve" smooth="yes"/>
      <point x="-50" y="862"/>
      <point x="-30" y="802"/>
      <point x="-57" y="757" type="curve" smooth="yes"/>
      <point x="-63" y="748"/>
      <point x="-64" y="744"/>
    </contour>
  </outline>
</glyph>
<glyph name="uni05A1" format="2">
  <advance width="0"/>
  <unicode hex="05A1"/>
  <outline>
    <contour>
      <point x="-34" y="755" type="line"/>
      <point x="-15" y="755" type="line" smooth="yes"/>
      <point x="21" y="755"/>
      <point x="34" y="770"/>
      <point x="34" y="802" type="curve" smooth="yes"/>
      <point x="34" y="838" type="line" smooth="yes"/>
      <point x="34" y="846"/>
      <point x="40" y="852"/>
      <point x="49" y="852" type="curve" smooth="yes"/>
      <point x="74" y="852" type="line" smooth="yes"/>
      <point x="82" y="852"/>
      <point x="89" y="846"/>
      <point x="89" y="838" type="curve" smooth="yes"/>
      <point x="89" y="791" type="line" smooth="yes"/>
      <point x="89" y="749"/>
      <point x="69" y="730"/>
      <point x="25" y="730" type="curve" smooth="yes"/>
      <point x="-34" y="730" type="line"/>
      <point x="-34" y="682" type="line" smooth="yes"/>
      <point x="-34" y="674"/>
      <point x="-40" y="668"/>
      <point x="-49" y="668" type="curve" smooth="yes"/>
      <point x="-74" y="668" type="line" smooth="yes"/>
      <point x="-82" y="668"/>
      <point x="-89" y="674"/>
      <point x="-89" y="682" type="curve" smooth="yes"/>
      <point x="-89" y="838" type="line" smooth="yes"/>
      <point x="-89" y="846"/>
      <point x="-82" y="852"/>
      <point x="-74" y="852" type="curve" smooth="yes"/>
      <point x="-49" y="852" type="line" smooth="yes"/>
      <point x="-40" y="852"/>
      <point x="-34" y="846"/>
      <point x="-34" y="838" type="curve" smooth="yes"/>
    </contour>
  </outline>
</glyph>
<glyph name="uni05A3" format="2">
  <advance width="0"/>
  <unicode hex="05A3"/>
  <outline>
    <contour>
      <point x="80" y="-165" type="line"/>
      <point x="80" y="-60" type="line" smooth="yes"/>
      <point x="80" y="-52"/>
      <point x="87" y="-45"/>
      <point x="95" y="-45" type="curve" smooth="yes"/>
      <point x="100" y="-45" type="line" smooth="yes"/>
      <point x="108" y="-45"/>
      <point x="115" y="-52"/>
      <point x="115" y="-60" type="curve" smooth="yes"/>
      <point x="115" y="-205" type="line" smooth="yes"/>
      <point x="115" y="-213"/>
      <point x="108" y="-220"/>
      <point x="100" y="-220" type="curve" smooth="yes"/>
      <point x="-100" y="-220" type="line" smooth="yes"/>
      <point x="-108" y="-220"/>
      <point x="-115" y="-213"/>
      <point x="-115" y="-205" type="curve" smooth="yes"/>
      <point x="-115" y="-180" type="line" smooth="yes"/>
      <point x="-115" y="-172"/>
      <point x="-108" y="-165"/>
      <point x="-100" y="-165" type="curve" smooth="yes"/>
    </contour>
  </outline>
</glyph>
<glyph name="uni05A8" format="2">
  <advance width="0"/>
  <unicode hex="05A8"/>
  <outline>
    <contour>
      <point x="40" y="677" type="curve" smooth="yes"/>
      <point x="24" y="773"/>
      <point x="-2" y="804"/>
      <point x="-55" y="831" type="curve" smooth="yes"/>
      <point x="-63" y="835"/>
      <point x="-68" y="845"/>
      <point x="-68" y="855" type="curve" smooth="yes"/>
      <point x="-68" y="872"/>
      <point x="-55" y="885"/>
      <point x="-38" y="885" type="curve" smooth="yes"/>
      <point x="-32" y="885"/>
      <point x="-26" y="883"/>
      <point x="-21" y="879" type="curve" smooth="yes"/>
      <point x="37" y="837"/>
      <point x="66" y="756"/>
      <point x="68" y="679" type="curve" smooth="yes"/>
      <point x="68" y="671"/>
      <point x="62" y="665"/>
      <point x="54" y="665" type="curve" smooth="yes"/>
      <point x="47" y="665"/>
      <point x="41" y="670"/>
    </contour>
  </outline>
</glyph>
<glyph name="uni05AA" format="2">
  <advance width="0"/>
  <unicode hex="05AA"/>
  <outline>
    <contour>
      <point x="-28" y="-164" type="line"/>
      <point x="-60" y="-160"/>
      <point x="-92" y="-136"/>
      <point x="-92" y="-105" type="curve" smooth="yes"/>
      <point x="-92" y="-60" type="line" smooth="yes"/>
      <point x="-92" y="-52"/>
      <point x="-86" y="-45"/>
      <point x="-78" y="-45" type="curve" smooth="yes"/>
      <point x="-52" y="-45" type="line" smooth="yes"/>
      <point x="-44" y="-45"/>
      <point x="-38" y="-52"/>
      <point x="-38" y="-60" type="curve" smooth="yes"/>
      <point x="-38" y="-102" type="line" smooth="yes"/>
      <point x="-38" y="-123"/>
      <point x="-21" y="-140"/>
      <point x="0" y="-140" type="curve" smooth="yes"/>
      <point x="21" y="-140"/>
      <point x="38" y="-123"/>
      <point x="38" y="-102" type="curve" smooth="yes"/>
      <point x="38" y="-60" type="line" smooth="yes"/>
      <point x="38" y="-52"/>
      <point x="44" y="-45"/>
      <point x="52" y="-45" type="curve" smooth="yes"/>
      <point x="78" y="-45" type="line" smooth="yes"/>
      <point x="86" y="-45"/>
      <point x="92" y="-52"/>
      <point x="92" y="-60" type="curve" smooth="yes"/>
      <point x="92" y="-105" type="line" smooth="yes"/>
      <point x="92" y="-137"/>
      <point x="56" y="-159"/>
      <point x="28" y="-164" type="curve"/>
      <point x="28" y="-220" type="line" smooth="yes"/>
      <point x="28" y="-228"/>
      <point x="21" y="-235"/>
      <point x="12" y="-235" type="curve" smooth="yes"/>
      <point x="-12" y="-235" type="line" smooth="yes"/>
      <point x="-21" y="-235"/>
      <point x="-28" y="-228"/>
      <point x="-28" y="-220" type="curve" smooth="yes"/>
    </contour>
  </outline>
</glyph>
<glyph name="uni05AD" format="2">
  <advance width="0"/>
  <unicode hex="05AD"/>
  <outline>
    <contour>
      <point x="-40" y="-57" type="curve" smooth="yes"/>
      <point x="-24" y="-153"/>
      <point x="2" y="-184"/>
      <point x="55" y="-211" type="curve" smooth="yes"/>
      <point x="63" y="-215"/>
      <point x="68" y="-225"/>
      <point x="68" y="-235" type="curve" smooth="yes"/>
      <point x="68" y="-252"/>
      <point x="55" y="-265"/>
      <point x="38" y="-265" type="curve" smooth="yes"/>
      <point x="32" y="-265"/>
      <point x="26" y="-263"/>
      <point x="21" y="-259" type="curve" smooth="yes"/>
      <point x="-37" y="-217"/>
      <point x="-66" y="-136"/>
      <point x="-68" y="-59" type="curve" smooth="yes"/>
      <point x="-68" y="-51"/>
      <point x="-62" y="-45"/>
      <point x="-54" y="-45" type="curve" smooth="yes"/>
      <point x="-47" y="-45"/>
      <point x="-41" y="-50"/>
    </contour>
  </outline>
</glyph>
<glyph name="afii57800" format="2">
  <advance width="0"/>
  <unicode hex="05B2"/>
  <outline>
    <contour>
      <point x="-170" y="-70" type="line" smooth="yes"/>
      <point x="-170" y="-62"/>
      <point x="-164" y="-55"/>
      <point x="-155" y="-55" type="curve" smooth="yes"/>
      <point x="23" y="-55" type="line" smooth="yes"/>
      <point x="32" y="-55"/>
      <point x="38" y="-62"/>
      <point x="38" y="-70" type="curve" smooth="yes"/>
      <point x="38" y="-95" type="line" smooth="yes"/>
      <point x="38" y="-103"/>
      <point x="32" y="-110"/>
      <point x="23" y="-110" type="curve" smooth="yes"/>
      <point x="-155" y="-110" type="line" smooth="yes"/>
      <point x="-164" y="-110"/>
      <point x="-170" y="-103"/>
      <point x="-170" y="-95" type="curve" smooth="yes"/>
    </contour>
    <contour>
      <point x="131" y="-160" type="curve" smooth="yes"/>
      <point x="152" y="-160"/>
      <point x="168" y="-177"/>
      <point x="168" y="-198" type="curve" smooth="yes"/>
      <point x="168" y="-218"/>
      <point x="152" y="-235"/>
      <point x="131" y="-235" type="curve" smooth="yes"/>
      <point x="110" y="-235"/>
      <point x="93" y="-218"/>
      <point x="93" y="-198" type="curve" smooth="yes"/>
      <point x="93" y="-177"/>
      <point x="110" y="-160"/>
    </contour>
    <contour>
      <point x="131" y="-45" type="curve" smooth="yes"/>
      <point x="152" y="-45"/>
      <point x="168" y="-62"/>
      <point x="168" y="-82" type="curve" smooth="yes"/>
      <point x="168" y="-103"/>
      <point x="152" y="-120"/>
      <point x="131" y="-120" type="curve" smooth="yes"/>
      <point x="110" y="-120"/>
      <point x="93" y="-103"/>
      <point x="93" y="-82" type="curve" smooth="yes"/>
      <point x="93" y="-62"/>
      <point x="110" y="-45"/>
    </contour>
  </outline>
</glyph>
<glyph name="afii57798" format="2">
  <advance width="0"/>
  <unicode hex="05B7"/>
  <outline>
    <contour>
      <point x="-115" y="-70" type="line" smooth="yes"/>
      <point x="-115" y="-62"/>
      <point x="-108" y="-55"/>
      <point x="-100" y="-55" type="curve" smooth="yes"/>
      <point x="100" y="-55" type="line" smooth="yes"/>
      <point x="108" y="-55"/>
      <point x="115" y="-62"/>
      <point x="115" y="-70" type="curve" smooth="yes"/>
      <point x="115" y="-95" type="line" smooth="yes"/>
      <point x="115" y="-103"/>
      <point x="108" y="-110"/>
      <point x="100" y="-110" type="curve" smooth="yes"/>
      <point x="-100" y="-110" type="line" smooth="yes"/>
      <point x="-108" y="-110"/>
      <point x="-115" y="-103"/>
      <point x="-115" y="-95" type="curve" smooth="yes"/>
    </contour>
  </outline>
</glyph>
<glyph name="afii57797" format="2">
  <advance width="0"/>
  <unicode hex="05B8"/>
  <outline>
    <contour>
      <point x="28" y="-173" type="curve"/>
      <point x="27.8896" y="-173.31" type="line"/>
      <point x="33.8896" y="-179.31"/>
      <point x="37.8896" y="-188.31"/>
      <point x="37.8896" y="-198.31" type="curve" smooth="yes"/>
      <point x="37.8896" y="-218.31"/>
      <point x="20.8896" y="-235.31"/>
      <point x="-0.110352" y="-235.31" type="curve" smooth="yes"/>
      <point x="-21.1104" y="-235.31"/>
      <point x="-38.1104" y="-218.31"/>
      <point x="-38.1104" y="-198.31" type="curve" smooth="yes"/>
      <point x="-38.1104" y="-188.31"/>
      <point x="-34.1104" y="-179.31"/>
      <point x="-28.1104" y="-172.31" type="curve" smooth="yes"/>
      <point x="-17.1104" y="-160.31"/>
      <point x="-18.1104" y="-147.31"/>
      <point x="-18.1104" y="-138.31" type="curve" smooth="yes"/>
      <point x="-18.1104" y="-117.31"/>
      <point x="-30.1104" y="-110.31"/>
      <point x="-56.1104" y="-110.31" type="curve" smooth="yes"/>
      <point x="-100.11" y="-110.31" type="line" smooth="yes"/>
      <point x="-108.11" y="-110.31"/>
      <point x="-115.11" y="-103.31"/>
      <point x="-115.11" y="-95.3096" type="curve" smooth="yes"/>
      <point x="-115.11" y="-70.3096" type="line" smooth="yes"/>
      <point x="-115.11" y="-62.3096"/>
      <point x="-108.11" y="-55.3096"/>
      <point x="-100.11" y="-55.3096" type="curve" smooth="yes"/>
      <point x="99.8896" y="-55.3096" type="line" smooth="yes"/>
      <point x="107.89" y="-55.3096"/>
      <point x="114.89" y="-62.3096"/>
      <point x="114.89" y="-70.3096" type="curve" smooth="yes"/>
      <point x="114.89" y="-95.3096" type="line" smooth="yes"/>
      <point x="114.89" y="-103.31"/>
      <point x="107.89" y="-110.31"/>
      <point x="99.8896" y="-110.31" type="curve" smooth="yes"/>
      <point x="55.8896" y="-110.31" type="line" smooth="yes"/>
      <point x="27.8896" y="-110.31"/>
      <point x="17.8896" y="-117.31"/>
      <point x="17.8896" y="-138.31" type="curve" smooth="yes"/>
      <point x="17.8896" y="-147.31"/>
      <point x="16.8896" y="-160.31"/>
    </contour>
  </outline>
</glyph>
<glyph name="afii57796" format="2">
  <advance width="0"/>
  <unicode hex="05BB"/>
  <outline>
    <contour>
      <point x="105" y="-160" type="curve" smooth="yes"/>
      <point x="126" y="-160"/>
      <point x="142" y="-177"/>
      <point x="142" y="-198" type="curve" smooth="yes"/>
      <point x="142" y="-218"/>
      <point x="126" y="-235"/>
      <point x="105" y="-235" type="curve" smooth="yes"/>
      <point x="84" y="-235"/>
      <point x="68" y="-218"/>
      <point x="68" y="-198" type="curve" smooth="yes"/>
      <point x="68" y="-177"/>
      <point x="84" y="-160"/>
    </contour>
    <contour>
      <point x="-38" y="-140" type="curve" smooth="yes"/>
      <point x="-38" y="-119"/>
      <point x="-21" y="-102"/>
      <point x="0" y="-102" type="curve" smooth="yes"/>
      <point x="21" y="-102"/>
      <point x="38" y="-119"/>
      <point x="38" y="-140" type="curve" smooth="yes"/>
      <point x="38" y="-161"/>
      <point x="21" y="-178"/>
      <point x="0" y="-178" type="curve" smooth="yes"/>
      <point x="-21" y="-178"/>
      <point x="-38" y="-161"/>
    </contour>
    <contour>
      <point x="-142" y="-82" type="curve" smooth="yes"/>
      <point x="-142" y="-62"/>
      <point x="-126" y="-45"/>
      <point x="-105" y="-45" type="curve" smooth="yes"/>
      <point x="-84" y="-45"/>
      <point x="-68" y="-62"/>
      <point x="-68" y="-82" type="curve" smooth="yes"/>
      <point x="-68" y="-103"/>
      <point x="-84" y="-120"/>
      <point x="-105" y="-120" type="curve" smooth="yes"/>
      <point x="-126" y="-120"/>
      <point x="-142" y="-103"/>
    </contour>
  </outline>
</glyph>
<glyph name="afii57841" format="2">
  <advance width="0"/>
  <unicode hex="05BF"/>
  <outline>
    <contour>
      <point x="-100" y="694" type="line" smooth="yes"/>
      <point x="-100" y="702"/>
      <point x="-93" y="709"/>
      <point x="-85" y="709" type="curve" smooth="yes"/>
      <point x="85" y="709" type="line" smooth="yes"/>
      <point x="93" y="709"/>
      <point x="100" y="702"/>
      <point x="100" y="694" type="curve" smooth="yes"/>
      <point x="100" y="669" type="line" smooth="yes"/>
      <point x="100" y="661"/>
      <point x="93" y="654"/>
      <point x="85" y="654" type="curve" smooth="yes"/>
      <point x="-85" y="654" type="line" smooth="yes"/>
      <point x="-93" y="654"/>
      <point x="-100" y="661"/>
      <point x="-100" y="669" type="curve" smooth="yes"/>
    </contour>
  </outline>
</glyph>
<glyph name="afii57658" format="2">
  <advance width="400"/>
  <unicode hex="05C3"/>
  <outline>
    <contour>
      <point x="113" y="131" type="curve" smooth="yes"/>
      <point x="96" y="138"/>
      <point x="96" y="163"/>
      <point x="113" y="168" type="curve" smooth="yes"/>
      <point x="144" y="181"/>
      <point x="169" y="206"/>
      <point x="181" y="237" type="curve" smooth="yes"/>
      <point x="188" y="254"/>
      <point x="212" y="254"/>
      <point x="218" y="237" type="curve" smooth="yes"/>
      <point x="231" y="206"/>
      <point x="256" y="180"/>
      <point x="287" y="168" type="curve" smooth="yes"/>
      <point x="304" y="162"/>
      <point x="304" y="138"/>
      <point x="287" y="131" type="curve" smooth="yes"/>
      <point x="256" y="119"/>
      <point x="230" y="94"/>
      <point x="218" y="63" type="curve" smooth="yes"/>
      <point x="212" y="46"/>
      <point x="188" y="46"/>
      <point x="182" y="63" type="curve" smooth="yes"/>
      <point x="170" y="94"/>
      <point x="144" y="119"/>
    </contour>
    <contour>
      <point x="113" y="501" type="curve" smooth="yes"/>
      <point x="96" y="508"/>
      <point x="96" y="533"/>
      <point x="113" y="538" type="curve" smooth="yes"/>
      <point x="144" y="551"/>
      <point x="169" y="576"/>
      <point x="181" y="607" type="curve" smooth="yes"/>
      <point x="188" y="624"/>
      <point x="212" y="624"/>
      <point x="218" y="607" type="curve" smooth="yes"/>
      <point x="231" y="576"/>
      <point x="256" y="550"/>
      <point x="287" y="538" type="curve" smooth="yes"/>
      <point x="304" y="532"/>
      <point x="304" y="508"/>
      <point x="287" y="501" type="curve" smooth="yes"/>
      <point x="256" y="489"/>
      <point x="230" y="464"/>
      <point x="218" y="433" type="curve" smooth="yes"/>
      <point x="212" y="416"/>
      <point x="188" y="416"/>
      <point x="182" y="433" type="curve" smooth="yes"/>
      <point x="170" y="464"/>
      <point x="144" y="489"/>
    </contour>
  </outline>
</glyph>
<glyph name="uni05C4" format="2">
  <advance width="0"/>
  <unicode hex="05C4"/>
  <outline>
    <contour>
      <point x="0" y="720" type="curve" smooth="yes"/>
      <point x="21" y="720"/>
      <point x="38" y="703"/>
      <point x="38" y="682" type="curve" smooth="yes"/>
      <point x="38" y="662"/>
      <point x="21" y="645"/>
      <point x="0" y="645" type="curve" smooth="yes"/>
      <point x="-21" y="645"/>
      <point x="-38" y="662"/>
      <point x="-38" y="682" type="curve" smooth="yes"/>
      <point x="-38" y="703"/>
      <point x="-21" y="720"/>
    </contour>
  </outline>
</glyph>
<glyph name="afii57664" format="2">
  <advance width="593"/>
  <unicode hex="05D0"/>
  <outline>
    <contour>
      <point x="145" y="628" type="curve" smooth="yes"/>
      <point x="144" y="615"/>
      <point x="144" y="599"/>
      <point x="149" y="584" type="curve" smooth="yes"/>
      <point x="171" y="520"/>
      <point x="203" y="484"/>
      <point x="257" y="440" type="curve" smooth="yes"/>
      <point x="357" y="355" type="line"/>
      <point x="357" y="355"/>
      <point x="368" y="348"/>
      <point x="374" y="359" type="curve" smooth="yes"/>
      <point x="374" y="359"/>
      <point x="398" y="404"/>
      <point x="404" y="416" type="curve" smooth="yes"/>
      <point x="409" y="426"/>
      <point x="406" y="437"/>
      <point x="398" y="443" type="curve" smooth="yes"/>
      <point x="369" y="468"/>
      <point x="355" y="483"/>
      <point x="348" y="521" type="curve" smooth="yes"/>
      <point x="344" y="545"/>
      <point x="352" y="580"/>
      <point x="358" y="592" type="curve" smooth="yes"/>
      <point x="369" y="615"/>
      <point x="382" y="627"/>
      <point x="396" y="636" type="curve" smooth="yes"/>
      <point x="428" y="655"/>
      <point x="426" y="640"/>
      <point x="441" y="609" type="curve" smooth="yes"/>
      <point x="446" y="598"/>
      <point x="456" y="590"/>
      <point x="467" y="583" type="curve" smooth="yes"/>
      <point x="491" y="568"/>
      <point x="536" y="545"/>
      <point x="548" y="502" type="curve" smooth="yes"/>
      <point x="563" y="449"/>
      <point x="546" y="416"/>
      <point x="529" y="380" type="curve" smooth="yes"/>
      <point x="522" y="364"/>
      <point x="506" y="351"/>
      <point x="499" y="362" type="curve" smooth="yes"/>
      <point x="489" y="378"/>
      <point x="475" y="391"/>
      <point x="458" y="401" type="curve" smooth="yes"/>
      <point x="449" y="406"/>
      <point x="437" y="404"/>
      <point x="432" y="394" type="curve" smooth="yes"/>
      <point x="402" y="338" type="line"/>
      <point x="402" y="338"/>
      <point x="397" y="326"/>
      <point x="406" y="319" type="curve" smooth="yes"/>
      <point x="488" y="252"/>
      <point x="538" y="207"/>
      <point x="544" y="124" type="curve" smooth="yes"/>
      <point x="547" y="82"/>
      <point x="530" y="35"/>
      <point x="499" y="10" type="curve" smooth="yes"/>
      <point x="463" y="-19"/>
      <point x="462" y="21"/>
      <point x="459" y="50" type="curve" smooth="yes"/>
      <point x="454" y="102"/>
      <point x="345" y="185"/>
      <point x="259" y="257" type="curve" smooth="yes"/>
      <point x="225" y="286"/>
      <point x="183" y="324"/>
      <point x="163" y="340" type="curve"/>
      <point x="163" y="340"/>
      <point x="153" y="346"/>
      <point x="146" y="338" type="curve" smooth="yes"/>
      <point x="137" y="328"/>
      <point x="118" y="307"/>
      <point x="120" y="282" type="curve" smooth="yes"/>
      <point x="126" y="232"/>
      <point x="190" y="203"/>
      <point x="229" y="148" type="curve" smooth="yes"/>
      <point x="246" y="124"/>
      <point x="257" y="59"/>
      <point x="218" y="24" type="curve" smooth="yes"/>
      <point x="198" y="6"/>
      <point x="179" y="0"/>
      <point x="152" y="0" type="curve" smooth="yes"/>
      <point x="63" y="0" type="line" smooth="yes"/>
      <point x="59" y="0"/>
      <point x="42" y="-1"/>
      <point x="56" y="15" type="curve" smooth="yes"/>
      <point x="60" y="20"/>
      <point x="64" y="28"/>
      <point x="68" y="34" type="curve" smooth="yes"/>
      <point x="74" y="44"/>
      <point x="74" y="57"/>
      <point x="66" y="69" type="curve" smooth="yes"/>
      <point x="53" y="89"/>
      <point x="37" y="118"/>
      <point x="42" y="176" type="curve" smooth="yes"/>
      <point x="49" y="257"/>
      <point x="63" y="288"/>
      <point x="124" y="358" type="curve"/>
      <point x="124" y="358"/>
      <point x="129" y="368"/>
      <point x="122" y="377" type="curve" smooth="yes"/>
      <point x="89" y="415"/>
      <point x="62" y="440"/>
      <point x="56" y="474" type="curve" smooth="yes"/>
      <point x="48" y="518"/>
      <point x="51" y="551"/>
      <point x="70" y="589" type="curve" smooth="yes"/>
      <point x="77" y="604"/>
      <point x="97" y="627"/>
      <point x="113" y="637" type="curve" smooth="yes"/>
      <point x="132" y="648"/>
      <point x="146" y="646"/>
    </contour>
  </outline>
</glyph>
<glyph name="afii57668" format="2">
  <advance width="561"/>
  <unicode hex="05D4"/>
  <outline>
    <contour>
      <point x="182" y="600" type="curve" smooth="yes"/>
      <point x="452.5" y="600" type="line" smooth="yes"/>
      <point x="512.5" y="600"/>
      <point x="519.5" y="563"/>
      <point x="520.5" y="523" type="curve" smooth="yes"/>
      <point x="521.5" y="486"/>
      <point x="515.5" y="448"/>
      <point x="470.5" y="441" type="curve" smooth="yes"/>
      <point x="457.5" y="439"/>
      <point x="458.5" y="426"/>
      <point x="458.5" y="426" type="curve"/>
      <point x="465.5" y="377"/>
      <point x="502.5" y="210"/>
      <point x="508.5" y="155" type="curve" smooth="yes"/>
      <point x="511.5" y="133"/>
      <point x="512.5" y="77"/>
      <point x="484.5" y="20" type="curve" smooth="yes"/>
      <point x="467.5" y="-17"/>
      <point x="431.5" y="-10"/>
      <point x="432.5" y="25" type="curve" smooth="yes"/>
      <point x="426.5" y="426" type="line" smooth="yes"/>
      <point x="426.5" y="440"/>
      <point x="419.5" y="440"/>
      <point x="411.5" y="440" type="curve" smooth="yes"/>
      <point x="117.5" y="440" type="line" smooth="yes"/>
      <point x="71.5" y="440"/>
      <point x="46.5" y="492"/>
      <point x="42.5" y="514" type="curve" smooth="yes"/>
      <point x="35.5" y="548"/>
      <point x="45.5" y="597"/>
      <point x="60.5" y="628" type="curve" smooth="yes"/>
      <point x="71.5" y="650"/>
      <point x="82.5" y="649"/>
      <point x="91.5" y="631" type="curve" smooth="yes"/>
      <point x="108.5" y="596"/>
      <point x="143.5" y="600"/>
    </contour>
    <contour>
      <point x="47.5" y="27" type="curve" smooth="yes"/>
      <point x="55.5" y="113"/>
      <point x="49.5" y="174"/>
      <point x="58.5" y="239" type="curve" smooth="yes"/>
      <point x="63.5" y="274"/>
      <point x="79.5" y="304"/>
      <point x="98.5" y="325" type="curve" smooth="yes"/>
      <point x="125.5" y="355"/>
      <point x="139.5" y="329"/>
      <point x="134.5" y="309" type="curve" smooth="yes"/>
      <point x="128.5" y="285"/>
      <point x="131.5" y="259"/>
      <point x="133.5" y="229" type="curve" smooth="yes"/>
      <point x="135.5" y="162"/>
      <point x="133.5" y="102"/>
      <point x="95.5" y="26" type="curve" smooth="yes"/>
      <point x="73.5" y="-18"/>
      <point x="44.5" y="-14"/>
    </contour>
  </outline>
</glyph>
<glyph name="afii57670" format="2">
  <advance width="291"/>
  <unicode hex="05D6"/>
  <outline>
    <contour>
      <point x="99" y="292" type="curve" smooth="yes"/>
      <point x="106" y="343"/>
      <point x="116" y="365"/>
      <point x="126" y="406" type="curve" smooth="yes"/>
      <point x="131" y="424"/>
      <point x="125" y="436"/>
      <point x="113" y="439" type="curve" smooth="yes"/>
      <point x="94" y="444"/>
      <point x="77" y="452"/>
      <point x="64" y="463" type="curve" smooth="yes"/>
      <point x="51" y="473"/>
      <point x="42" y="488"/>
      <point x="36" y="505" type="curve" smooth="yes"/>
      <point x="31" y="523"/>
      <point x="30" y="543"/>
      <point x="31" y="558" type="curve" smooth="yes"/>
      <point x="32" y="581"/>
      <point x="41" y="607"/>
      <point x="48" y="618" type="curve" smooth="yes"/>
      <point x="68" y="650"/>
      <point x="77" y="654"/>
      <point x="104" y="623" type="curve" smooth="yes"/>
      <point x="114" y="610"/>
      <point x="145" y="602"/>
      <point x="162" y="600" type="curve" smooth="yes"/>
      <point x="203" y="595"/>
      <point x="228" y="578"/>
      <point x="244" y="555" type="curve" smooth="yes"/>
      <point x="257" y="536"/>
      <point x="261" y="498"/>
      <point x="256" y="465" type="curve" smooth="yes"/>
      <point x="250" y="424"/>
      <point x="239" y="418"/>
      <point x="228" y="423" type="curve" smooth="yes"/>
      <point x="216" y="428"/>
      <point x="202" y="432"/>
      <point x="184" y="430" type="curve" smooth="yes"/>
      <point x="169" y="430"/>
      <point x="161" y="418"/>
      <point x="158" y="400" type="curve" smooth="yes"/>
      <point x="150" y="341"/>
      <point x="166" y="320"/>
      <point x="178" y="270" type="curve" smooth="yes"/>
      <point x="190" y="222"/>
      <point x="195" y="191"/>
      <point x="185" y="118" type="curve" smooth="yes"/>
      <point x="180" y="82"/>
      <point x="174" y="59"/>
      <point x="163" y="26" type="curve" smooth="yes"/>
      <point x="150" y="-12"/>
      <point x="124" y="-27"/>
      <point x="124" y="34" type="curve" smooth="yes"/>
      <point x="124" y="72"/>
      <point x="120" y="106"/>
      <point x="115" y="136" type="curve" smooth="yes"/>
      <point x="104" y="196"/>
      <point x="91" y="231"/>
    </contour>
  </outline>
</glyph>
<glyph name="afii57671" format="2">
  <advance width="559"/>
  <unicode hex="05D7"/>
  <outline>
    <contour>
      <point x="158" y="440" type="line"/>
      <point x="143" y="427"/>
      <point x="132" y="402"/>
      <point x="129" y="383" type="curve" smooth="yes"/>
      <point x="120" y="330"/>
      <point x="132" y="243"/>
      <point x="133" y="220" type="curve" smooth="yes"/>
      <point x="136" y="153"/>
      <point x="141" y="102"/>
      <point x="103" y="26" type="curve" smooth="yes"/>
      <point x="81" y="-18"/>
      <point x="52" y="-14"/>
      <point x="55" y="27" type="curve" smooth="yes"/>
      <point x="63" y="113"/>
      <point x="54" y="193"/>
      <point x="58" y="259" type="curve" smooth="yes"/>
      <point x="61" y="306"/>
      <point x="65" y="371"/>
      <point x="113" y="440" type="curve"/>
      <point x="47" y="451"/>
      <point x="45" y="492"/>
      <point x="41" y="514" type="curve" smooth="yes"/>
      <point x="34" y="548"/>
      <point x="44" y="597"/>
      <point x="59" y="628" type="curve" smooth="yes"/>
      <point x="70" y="650"/>
      <point x="81" y="649"/>
      <point x="90" y="631" type="curve" smooth="yes"/>
      <point x="107" y="596"/>
      <point x="142" y="600"/>
      <point x="180" y="600" type="curve" smooth="yes"/>
      <point x="451" y="600" type="line" smooth="yes"/>
      <point x="511" y="600"/>
      <point x="518" y="563"/>
      <point x="519" y="523" type="curve" smooth="yes"/>
      <point x="520" y="486"/>
      <point x="514" y="448"/>
      <point x="469" y="441" type="curve" smooth="yes"/>
      <point x="456" y="439"/>
      <point x="457" y="426"/>
      <point x="457" y="426" type="curve"/>
      <point x="464" y="377"/>
      <point x="501" y="210"/>
      <point x="507" y="155" type="curve" smooth="yes"/>
      <point x="510" y="133"/>
      <point x="511" y="77"/>
      <point x="483" y="20" type="curve" smooth="yes"/>
      <point x="466" y="-17"/>
      <point x="430" y="-10"/>
      <point x="431" y="25" type="curve" smooth="yes"/>
      <point x="425" y="426" type="line" smooth="yes"/>
      <point x="425" y="440"/>
      <point x="418" y="440"/>
      <point x="410" y="440" type="curve" smooth="yes"/>
    </contour>
  </outline>
</glyph>
<glyph name="afii57677" format="2">
  <advance width="542"/>
  <unicode hex="05DD"/>
  <outline>
    <contour>
      <point x="184" y="600" type="curve" smooth="yes"/>
      <point x="378.5" y="600" type="line" smooth="yes"/>
      <point x="466.5" y="600"/>
      <point x="498.5" y="522"/>
      <point x="498.5" y="440" type="curve" smooth="yes"/>
      <point x="498.5" y="25" type="line" smooth="yes"/>
      <point x="498.5" y="10"/>
      <point x="489.5" y="0"/>
      <point x="468.5" y="0" type="curve" smooth="yes"/>
      <point x="78.5" y="0" type="line" smooth="yes"/>
      <point x="62.5" y="0"/>
      <point x="52.5" y="6"/>
      <point x="52.5" y="26" type="curve" smooth="yes"/>
      <point x="53.5" y="240" type="line" smooth="yes"/>
      <point x="53.5" y="341"/>
      <point x="92.5" y="405"/>
      <point x="118.5" y="440" type="curve"/>
      <point x="65.5" y="440"/>
      <point x="48.5" y="492"/>
      <point x="44.5" y="514" type="curve" smooth="yes"/>
      <point x="38.5" y="548"/>
      <point x="47.5" y="597"/>
      <point x="62.5" y="628" type="curve" smooth="yes"/>
      <point x="73.5" y="650"/>
      <point x="84.5" y="649"/>
      <point x="93.5" y="631" type="curve" smooth="yes"/>
      <point x="110.5" y="596"/>
      <point x="145.5" y="600"/>
    </contour>
    <contour>
      <point x="153.5" y="440" type="line"/>
      <point x="138.5" y="411"/>
      <point x="116.5" y="366"/>
      <point x="116.5" y="297" type="curve" smooth="yes"/>
      <point x="116.5" y="185" type="line" smooth="yes"/>
      <point x="116.5" y="169"/>
      <point x="124.5" y="160"/>
      <point x="142.5" y="160" type="curve" smooth="yes"/>
      <point x="438.5" y="160" type="line" smooth="yes"/>
      <point x="453.5" y="160"/>
      <point x="465.5" y="167"/>
      <point x="465.5" y="189" type="curve" smooth="yes"/>
      <point x="465.5" y="344" type="line" smooth="yes"/>
      <point x="465.5" y="394"/>
      <point x="427.5" y="440"/>
      <point x="369.5" y="440" type="curve" smooth="yes"/>
    </contour>
  </outline>
</glyph>
<glyph name="afii57683" format="2">
  <advance width="493"/>
  <unicode hex="05E3"/>
  <outline>
    <contour>
      <point x="104" y="440" type="curve"/>
      <point x="72" y="463"/>
      <point x="62" y="492"/>
      <point x="58" y="514" type="curve" smooth="yes"/>
      <point x="51" y="548"/>
      <point x="60" y="597"/>
      <point x="76" y="628" type="curve" smooth="yes"/>
      <point x="86" y="650"/>
      <point x="98" y="649"/>
      <point x="106" y="631" type="curve" smooth="yes"/>
      <point x="124" y="596"/>
      <point x="159" y="600"/>
      <point x="197" y="600" type="curve" smooth="yes"/>
      <point x="336" y="600" type="line" smooth="yes"/>
      <point x="392" y="600"/>
      <point x="430" y="557"/>
      <point x="433" y="504" type="curve" smooth="yes"/>
      <point x="468" y="-160" type="line" smooth="yes"/>
      <point x="471" y="-209"/>
      <point x="452" y="-245"/>
      <point x="423" y="-270" type="curve" smooth="yes"/>
      <point x="405" y="-284"/>
      <point x="389" y="-287"/>
      <point x="390" y="-259" type="curve" smooth="yes"/>
      <point x="409" y="346" type="line" smooth="yes"/>
      <point x="412" y="397"/>
      <point x="388" y="440"/>
      <point x="338" y="440" type="curve" smooth="yes"/>
      <point x="144" y="440" type="line"/>
      <point x="119" y="422"/>
      <point x="94" y="366"/>
      <point x="103" y="316" type="curve" smooth="yes"/>
      <point x="112" y="268"/>
      <point x="163" y="268"/>
      <point x="211" y="269" type="curve" smooth="yes"/>
      <point x="242" y="270"/>
      <point x="268" y="249"/>
      <point x="275" y="215" type="curve" smooth="yes"/>
      <point x="282" y="183"/>
      <point x="279" y="149"/>
      <point x="245" y="128" type="curve" smooth="yes"/>
      <point x="211" y="107"/>
      <point x="140" y="116"/>
      <point x="108" y="122" type="curve"/>
      <point x="98" y="115"/>
      <point x="88" y="103"/>
      <point x="72" y="91" type="curve" smooth="yes"/>
      <point x="63" y="84"/>
      <point x="51" y="81"/>
      <point x="43" y="89" type="curve" smooth="yes"/>
      <point x="35" y="97"/>
      <point x="39" y="110"/>
      <point x="47" y="117" type="curve" smooth="yes"/>
      <point x="62" y="130"/>
      <point x="61" y="128"/>
      <point x="74" y="141" type="curve"/>
      <point x="35" y="199"/>
      <point x="36" y="253"/>
      <point x="40" y="294" type="curve" smooth="yes"/>
      <point x="46" y="356"/>
      <point x="73" y="415"/>
    </contour>
  </outline>
</glyph>
<glyph name="afii57687" format="2">
  <advance width="544"/>
  <unicode hex="05E7"/>
  <outline>
    <contour>
      <point x="186" y="600" type="curve"/>
      <point x="185.5" y="600" type="line"/>
      <point x="217.5" y="596"/>
      <point x="395.5" y="612"/>
      <point x="466.5" y="538" type="curve" smooth="yes"/>
      <point x="536.5" y="466"/>
      <point x="532.5" y="230"/>
      <point x="507.5" y="158" type="curve" smooth="yes"/>
      <point x="496.5" y="126"/>
      <point x="460.5" y="82"/>
      <point x="411.5" y="61" type="curve" smooth="yes"/>
      <point x="344.5" y="33"/>
      <point x="238.5" y="41"/>
      <point x="211.5" y="-5" type="curve" smooth="yes"/>
      <point x="199.5" y="-26"/>
      <point x="177.5" y="-16"/>
      <point x="176.5" y="10" type="curve" smooth="yes"/>
      <point x="176.5" y="18"/>
      <point x="177.5" y="31"/>
      <point x="184.5" y="48" type="curve" smooth="yes"/>
      <point x="201.5" y="88"/>
      <point x="237.5" y="115"/>
      <point x="317.5" y="141" type="curve" smooth="yes"/>
      <point x="381.5" y="162"/>
      <point x="429.5" y="152"/>
      <point x="464.5" y="191" type="curve" smooth="yes"/>
      <point x="502.5" y="233"/>
      <point x="500.5" y="352"/>
      <point x="462.5" y="395" type="curve" smooth="yes"/>
      <point x="408.5" y="456"/>
      <point x="181.5" y="429"/>
      <point x="119.5" y="446" type="curve" smooth="yes"/>
      <point x="62.5" y="462"/>
      <point x="55.5" y="496"/>
      <point x="50.5" y="518" type="curve" smooth="yes"/>
      <point x="41.5" y="559"/>
      <point x="49.5" y="597"/>
      <point x="64.5" y="628" type="curve" smooth="yes"/>
      <point x="75.5" y="650"/>
      <point x="86.5" y="649"/>
      <point x="95.5" y="631" type="curve" smooth="yes"/>
      <point x="112.5" y="596"/>
      <point x="148.5" y="604"/>
    </contour>
    <contour>
      <point x="133.5" y="346" type="curve" smooth="yes"/>
      <point x="108.5" y="299"/>
      <point x="105.5" y="276"/>
      <point x="105.5" y="242" type="curve" smooth="yes"/>
      <point x="102.5" y="142"/>
      <point x="131.5" y="0"/>
      <point x="130.5" y="-84" type="curve" smooth="yes"/>
      <point x="129.5" y="-156"/>
      <point x="127.5" y="-223"/>
      <point x="80.5" y="-288" type="curve" smooth="yes"/>
      <point x="53.5" y="-325"/>
      <point x="41.5" y="-324"/>
      <point x="45.5" y="-284" type="curve" smooth="yes"/>
      <point x="55.5" y="-168"/>
      <point x="45.5" y="-126"/>
      <point x="46.5" y="-20" type="curve" smooth="yes"/>
      <point x="47.5" y="76"/>
      <point x="39.5" y="162"/>
      <point x="48.5" y="227" type="curve" smooth="yes"/>
      <point x="55.5" y="274"/>
      <point x="73.5" y="323"/>
      <point x="104.5" y="358" type="curve" smooth="yes"/>
      <point x="131.5" y="389"/>
      <point x="147.5" y="372"/>
    </contour>
  </outline>
</glyph>
<glyph name="afii57688" format="2">
  <advance width="502"/>
  <unicode hex="05E8"/>
  <outline>
    <contour>
      <point x="427" y="344" type="curve" smooth="yes"/>
      <point x="427" y="394"/>
      <point x="389" y="440"/>
      <point x="331" y="440" type="curve" smooth="yes"/>
      <point x="108" y="440" type="line" smooth="yes"/>
      <point x="63" y="440"/>
      <point x="38" y="492"/>
      <point x="34" y="514" type="curve" smooth="yes"/>
      <point x="27" y="548"/>
      <point x="37" y="597"/>
      <point x="52" y="628" type="curve" smooth="yes"/>
      <point x="63" y="650"/>
      <point x="74" y="649"/>
      <point x="83" y="631" type="curve" smooth="yes"/>
      <point x="100" y="596"/>
      <point x="135" y="600"/>
      <point x="173" y="600" type="curve" smooth="yes"/>
      <point x="306" y="600" type="line" smooth="yes"/>
      <point x="394" y="600"/>
      <point x="440" y="539"/>
      <point x="452" y="440" type="curve" smooth="yes"/>
      <point x="460" y="372"/>
      <point x="465" y="208"/>
      <point x="470" y="154" type="curve" smooth="yes"/>
      <point x="472" y="132"/>
      <point x="476" y="72"/>
      <point x="457" y="20" type="curve" smooth="yes"/>
      <point x="443" y="-19"/>
      <point x="412" y="-8"/>
      <point x="414" y="26" type="curve" smooth="yes"/>
      <point x="414" y="26"/>
      <point x="419" y="215"/>
    </contour>
  </outline>
</glyph>
<glyph name="afii57690" format="2">
  <advance width="571"/>
  <unicode hex="05EA"/>
  <outline>
    <contour>
      <point x="131" y="448" type="curve"/>
      <point x="130.67" y="448" type="line"/>
      <point x="100.67" y="462"/>
      <point x="88.6699" y="496"/>
      <point x="85.6699" y="514" type="curve" smooth="yes"/>
      <point x="79.6699" y="548"/>
      <point x="88.6699" y="597"/>
      <point x="103.67" y="628" type="curve" smooth="yes"/>
      <point x="114.67" y="650"/>
      <point x="125.67" y="649"/>
      <point x="134.67" y="631" type="curve" smooth="yes"/>
      <point x="151.67" y="596"/>
      <point x="186.67" y="600"/>
      <point x="225.67" y="600" type="curve" smooth="yes"/>
      <point x="374.67" y="600" type="line" smooth="yes"/>
      <point x="462.67" y="600"/>
      <point x="508.67" y="539"/>
      <point x="520.67" y="440" type="curve" smooth="yes"/>
      <point x="528.67" y="372"/>
      <point x="533.67" y="208"/>
      <point x="538.67" y="154" type="curve" smooth="yes"/>
      <point x="540.67" y="132"/>
      <point x="544.67" y="72"/>
      <point x="525.67" y="20" type="curve" smooth="yes"/>
      <point x="511.67" y="-19"/>
      <point x="480.67" y="-8"/>
      <point x="482.67" y="26" type="curve" smooth="yes"/>
      <point x="482.67" y="26"/>
      <point x="487.67" y="215"/>
      <point x="495.67" y="344" type="curve" smooth="yes"/>
      <point x="495.67" y="394"/>
      <point x="457.67" y="440"/>
      <point x="399.67" y="440" type="curve" smooth="yes"/>
      <point x="167.67" y="440" type="line"/>
      <point x="158.67" y="425"/>
      <point x="151.67" y="414"/>
      <point x="145.67" y="397" type="curve" smooth="yes"/>
      <point x="126.67" y="347"/>
      <point x="132.67" y="293"/>
      <point x="163.67" y="240" type="curve" smooth="yes"/>
      <point x="188.67" y="197"/>
      <point x="214.67" y="140"/>
      <point x="199.67" y="76" type="curve" smooth="yes"/>
      <point x="193.67" y="54"/>
      <point x="175.67" y="0"/>
      <point x="126.67" y="0" type="curve" smooth="yes"/>
      <point x="26.6699" y="0" type="line" smooth="yes"/>
      <point x="10.6699" y="0"/>
      <point x="4.66992" y="9"/>
      <point x="10.6699" y="22" type="curve" smooth="yes"/>
      <point x="58.6699" y="139" type="line" smooth="yes"/>
      <point x="63.6699" y="153"/>
      <point x="73.6699" y="160"/>
      <point x="89.6699" y="160" type="curve" smooth="yes"/>
      <point x="93.6699" y="160"/>
      <point x="100.67" y="161"/>
      <point x="105.67" y="167" type="curve" smooth="yes"/>
      <point x="115.67" y="180"/>
      <point x="71.6699" y="225"/>
      <point x="78.6699" y="304" type="curve" smooth="yes"/>
      <point x="83.6699" y="364"/>
      <point x="110.67" y="426"/>
    </contour>
  </outline>
</glyph>
<glyph name="afii57716" format="2">
  <advance width="532"/>
  <unicode hex="05F0"/>
  <outline>
    <contour>
      <point x="487" y="523" type="curve" smooth="yes"/>
      <point x="494" y="485"/>
      <point x="486" y="448"/>
      <point x="462" y="418" type="curve" smooth="yes"/>
      <point x="458" y="412"/>
      <point x="451" y="401"/>
      <point x="453" y="390" type="curve" smooth="yes"/>
      <point x="464" y="322"/>
      <point x="480" y="210"/>
      <point x="486" y="155" type="curve" smooth="yes"/>
      <point x="489" y="133"/>
      <point x="490" y="77"/>
      <point x="462" y="20" type="curve" smooth="yes"/>
      <point x="445" y="-17"/>
      <point x="409" y="-10"/>
      <point x="410" y="25" type="curve" smooth="yes"/>
      <point x="410" y="25"/>
      <point x="419" y="268"/>
      <point x="421" y="392" type="curve" smooth="yes"/>
      <point x="422" y="406"/>
      <point x="413" y="419"/>
      <point x="400" y="423" type="curve" smooth="yes"/>
      <point x="384" y="427"/>
      <point x="357" y="435"/>
      <point x="341" y="446" type="curve" smooth="yes"/>
      <point x="324" y="458"/>
      <point x="310" y="476"/>
      <point x="304" y="496" type="curve" smooth="yes"/>
      <point x="298" y="515"/>
      <point x="297" y="543"/>
      <point x="298" y="558" type="curve" smooth="yes"/>
      <point x="299" y="581"/>
      <point x="307" y="607"/>
      <point x="314" y="618" type="curve" smooth="yes"/>
      <point x="334" y="650"/>
      <point x="346" y="653"/>
      <point x="364" y="624" type="curve" smooth="yes"/>
      <point x="377" y="604"/>
      <point x="404" y="598"/>
      <point x="418" y="594" type="curve" smooth="yes"/>
      <point x="459" y="584"/>
      <point x="481" y="554"/>
    </contour>
    <contour>
      <point x="221" y="523" type="curve" smooth="yes"/>
      <point x="228" y="485"/>
      <point x="220" y="448"/>
      <point x="196" y="418" type="curve" smooth="yes"/>
      <point x="192" y="412"/>
      <point x="185" y="401"/>
      <point x="187" y="390" type="curve" smooth="yes"/>
      <point x="198" y="322"/>
      <point x="214" y="210"/>
      <point x="220" y="155" type="curve" smooth="yes"/>
      <point x="223" y="133"/>
      <point x="224" y="77"/>
      <point x="196" y="20" type="curve" smooth="yes"/>
      <point x="179" y="-17"/>
      <point x="143" y="-10"/>
      <point x="144" y="25" type="curve" smooth="yes"/>
      <point x="144" y="25"/>
      <point x="153" y="268"/>
      <point x="155" y="392" type="curve" smooth="yes"/>
      <point x="156" y="406"/>
      <point x="147" y="419"/>
      <point x="134" y="423" type="curve" smooth="yes"/>
      <point x="118" y="427"/>
      <point x="91" y="435"/>
      <point x="75" y="446" type="curve" smooth="yes"/>
      <point x="58" y="458"/>
      <point x="44" y="476"/>
      <point x="38" y="496" type="curve" smooth="yes"/>
      <point x="32" y="515"/>
      <point x="31" y="543"/>
      <point x="32" y="558" type="curve" smooth="yes"/>
      <point x="33" y="581"/>
      <point x="41" y="607"/>
      <point x="48" y="618" type="curve" smooth="yes"/>
      <point x="68" y="650"/>
      <point x="80" y="653"/>
      <point x="98" y="624" type="curve" smooth="yes"/>
      <point x="111" y="604"/>
      <point x="138" y="598"/>
      <point x="152" y="594" type="curve" smooth="yes"/>
      <point x="193" y="584"/>
      <point x="215" y="554"/>
    </contour>
  </outline>
</glyph>
<glyph name="uni25CC" format="2">
  <advance width="604"/>
  <unicode hex="25CC"/>
  <outline>
    <contour>
      <point x="505" y="454" type="curve" smooth="yes"/>
      <point x="525" y="454"/>
      <point x="542" y="438"/>
      <point x="542" y="418" type="curve" smooth="yes"/>
      <point x="542" y="397"/>
      <point x="525" y="381"/>
      <point x="505" y="381" type="curve" smooth="yes"/>
      <point x="485" y="381"/>
      <point x="468" y="397"/>
      <point x="468" y="418" type="curve" smooth="yes"/>
      <point x="468" y="438"/>
      <point x="485" y="454"/>
    </contour>
    <contour>
      <point x="419" y="133" type="curve" smooth="yes"/>
      <point x="439" y="133"/>
      <point x="456" y="117"/>
      <point x="456" y="96" type="curve" smooth="yes"/>
      <point x="456" y="76"/>
      <point x="439" y="60"/>
      <point x="419" y="60" type="curve" smooth="yes"/>
      <point x="399" y="60"/>
      <point x="382" y="76"/>
      <point x="382" y="96" type="curve" smooth="yes"/>
      <point x="382" y="117"/>
      <point x="399" y="133"/>
    </contour>
    <contour>
      <point x="97" y="219" type="curve" smooth="yes"/>
      <point x="118" y="219"/>
      <point x="134" y="203"/>
      <point x="134" y="182" type="curve" smooth="yes"/>
      <point x="134" y="162"/>
      <point x="118" y="146"/>
      <point x="97" y="146" type="curve" smooth="yes"/>
      <point x="77" y="146"/>
      <point x="61" y="162"/>
      <point x="61" y="182" type="curve" smooth="yes"/>
      <point x="61" y="203"/>
      <point x="77" y="219"/>
    </contour>
    <contour>
      <point x="184" y="540" type="curve" smooth="yes"/>
      <point x="204" y="540"/>
      <point x="220" y="524"/>
      <point x="220" y="504" type="curve" smooth="yes"/>
      <point x="220" y="483"/>
      <point x="204" y="467"/>
      <point x="184" y="467" type="curve" smooth="yes"/>
      <point x="163" y="467"/>
      <point x="147" y="483"/>
      <point x="147" y="504" type="curve" smooth="yes"/>
      <point x="147" y="524"/>
      <point x="163" y="540"/>
    </contour>
    <contour>
      <point x="97" y="454" type="curve" smooth="yes"/>
      <point x="118" y="454"/>
      <point x="134" y="438"/>
      <point x="134" y="418" type="curve" smooth="yes"/>
      <point x="134" y="397"/>
      <point x="118" y="381"/>
      <point x="97" y="381" type="curve" smooth="yes"/>
      <point x="77" y="381"/>
      <point x="61" y="397"/>
      <point x="61" y="418" type="curve" smooth="yes"/>
      <point x="61" y="438"/>
      <point x="77" y="454"/>
    </contour>
    <contour>
      <point x="184" y="133" type="curve" smooth="yes"/>
      <point x="204" y="133"/>
      <point x="220" y="117"/>
      <point x="220" y="96" type="curve" smooth="yes"/>
      <point x="220" y="76"/>
      <point x="204" y="60"/>
      <point x="184" y="60" type="curve" smooth="yes"/>
      <point x="163" y="60"/>
      <point x="147" y="76"/>
      <point x="147" y="96" type="curve" smooth="yes"/>
      <point x="147" y="117"/>
      <point x="163" y="133"/>
    </contour>
    <contour>
      <point x="505" y="219" type="curve" smooth="yes"/>
      <point x="525" y="219"/>
      <point x="542" y="203"/>
      <point x="542" y="182" type="curve" smooth="yes"/>
      <point x="542" y="162"/>
      <point x="525" y="146"/>
      <point x="505" y="146" type="curve" smooth="yes"/>
      <point x="485" y="146"/>
      <point x="468" y="162"/>
      <point x="468" y="182" type="curve" smooth="yes"/>
      <point x="468" y="203"/>
      <point x="485" y="219"/>
    </contour>
    <contour>
      <point x="419" y="540" type="curve" smooth="yes"/>
      <point x="439" y="540"/>
      <point x="456" y="524"/>
      <point x="456" y="504" type="curve" smooth="yes"/>
      <point x="456" y="483"/>
      <point x="439" y="467"/>
      <point x="419" y="467" type="curve" smooth="yes"/>
      <point x="399" y="467"/>
      <point x="382" y="483"/>
      <point x="382" y="504" type="curve" smooth="yes"/>
      <point x="382" y="524"/>
      <point x="399" y="540"/>
    </contour>
    <contour>
      <point x="301" y="101" type="curve" smooth="yes"/>
      <point x="321" y="101"/>
      <point x="338" y="85"/>
      <point x="338" y="65" type="curve" smooth="yes"/>
      <point x="338" y="44"/>
      <point x="321" y="28"/>
      <point x="301" y="28" type="curve" smooth="yes"/>
      <point x="281" y="28"/>
      <point x="264" y="44"/>
      <point x="264" y="65" type="curve" smooth="yes"/>
      <point x="264" y="85"/>
      <point x="281" y="101"/>
    </contour>
    <contour>
      <point x="536" y="337" type="curve" smooth="yes"/>
      <point x="557" y="337"/>
      <point x="573" y="320"/>
      <point x="573" y="300" type="curve" smooth="yes"/>
      <point x="573" y="280"/>
      <point x="557" y="263"/>
      <point x="536" y="263" type="curve" smooth="yes"/>
      <point x="516" y="263"/>
      <point x="500" y="280"/>
      <point x="500" y="300" type="curve" smooth="yes"/>
      <point x="500" y="320"/>
      <point x="516" y="337"/>
    </contour>
    <contour>
      <point x="301" y="572" type="curve" smooth="yes"/>
      <point x="321" y="572"/>
      <point x="338" y="556"/>
      <point x="338" y="535" type="curve" smooth="yes"/>
      <point x="338" y="515"/>
      <point x="321" y="499"/>
      <point x="301" y="499" type="curve" smooth="yes"/>
      <point x="281" y="499"/>
      <point x="264" y="515"/>
      <point x="264" y="535" type="curve" smooth="yes"/>
      <point x="264" y="556"/>
      <point x="281" y="572"/>
    </contour>
    <contour>
      <point x="66" y="337" type="curve" smooth="yes"/>
      <point x="86" y="337"/>
      <point x="103" y="320"/>
      <point x="103" y="300" type="curve" smooth="yes"/>
      <point x="103" y="280"/>
      <point x="86" y="263"/>
      <point x="66" y="263" type="curve" smooth="yes"/>
      <point x="46" y="263"/>
      <point x="29" y="280"/>
      <point x="29" y="300" type="curve" smooth="yes"/>
      <point x="29" y="320"/>
      <point x="46" y="337"/>
    </contour>
  </outline>
</glyph>
<glyph name="uniE802" format="2">
  <advance width="496"/>
  <unicode hex="E802"/>
  <outline>
    <contour>
      <point x="261" y="182" type="curve" smooth="yes"/>
      <point x="282" y="182"/>
      <point x="299" y="165"/>
      <point x="299" y="144" type="curve" smooth="yes"/>
      <point x="299" y="124"/>
      <point x="282" y="107"/>
      <point x="261" y="107" type="curve" smooth="yes"/>
      <point x="240" y="107"/>
      <point x="223" y="124"/>
      <point x="223" y="144" type="curve" smooth="yes"/>
      <point x="223" y="165"/>
      <point x="240" y="182"/>
    </contour>
    <contour>
      <point x="261" y="297" type="curve" smooth="yes"/>
      <point x="282" y="297"/>
      <point x="299" y="280"/>
      <point x="299" y="260" type="curve" smooth="yes"/>
      <point x="299" y="239"/>
      <point x="282" y="222"/>
      <point x="261" y="222" type="curve" smooth="yes"/>
      <point x="240" y="222"/>
      <point x="223" y="239"/>
      <point x="223" y="260" type="curve" smooth="yes"/>
      <point x="223" y="280"/>
      <point x="240" y="297"/>
    </contour>
    <contour>
      <point x="173" y="600" type="curve" smooth="yes"/>
      <point x="390" y="600" type="line" smooth="yes"/>
      <point x="450" y="600"/>
      <point x="457" y="563"/>
      <point x="458" y="523" type="curve" smooth="yes"/>
      <point x="459" y="486"/>
      <point x="453" y="448"/>
      <point x="408" y="441" type="curve" smooth="yes"/>
      <point x="395" y="439"/>
      <point x="396" y="426"/>
      <point x="396" y="426" type="curve"/>
      <point x="403" y="377"/>
      <point x="425" y="-70"/>
      <point x="432" y="-125" type="curve" smooth="yes"/>
      <point x="434" y="-147"/>
      <point x="436" y="-203"/>
      <point x="408" y="-260" type="curve" smooth="yes"/>
      <point x="390" y="-297"/>
      <point x="355" y="-290"/>
      <point x="356" y="-255" type="curve" smooth="yes"/>
      <point x="364" y="426" type="line" smooth="yes"/>
      <point x="364" y="440"/>
      <point x="357" y="440"/>
      <point x="349" y="440" type="curve" smooth="yes"/>
      <point x="108" y="440" type="line" smooth="yes"/>
      <point x="63" y="440"/>
      <point x="38" y="492"/>
      <point x="34" y="514" type="curve" smooth="yes"/>
      <point x="27" y="548"/>
      <point x="36" y="597"/>
      <point x="52" y="628" type="curve" smooth="yes"/>
      <point x="62" y="650"/>
      <point x="74" y="649"/>
      <point x="82" y="631" type="curve" smooth="yes"/>
      <point x="100" y="596"/>
      <point x="135" y="600"/>
    </contour>
  </outline>
</glyph>
<glyph name="uniE803" format="2">
  <advance width="496"/>
  <unicode hex="E803"/>
  <outline>
    <contour>
      <point x="241" y="172" type="curve"/>
      <point x="240.89" y="171.69" type="line"/>
      <point x="246.89" y="165.69"/>
      <point x="250.89" y="156.69"/>
      <point x="250.89" y="146.69" type="curve" smooth="yes"/>
      <point x="250.89" y="126.69"/>
      <point x="233.89" y="109.69"/>
      <point x="212.89" y="109.69" type="curve" smooth="yes"/>
      <point x="191.89" y="109.69"/>
      <point x="174.89" y="126.69"/>
      <point x="174.89" y="146.69" type="curve" smooth="yes"/>
      <point x="174.89" y="156.69"/>
      <point x="178.89" y="165.69"/>
      <point x="184.89" y="172.69" type="curve" smooth="yes"/>
      <point x="195.89" y="184.69"/>
      <point x="194.89" y="197.69"/>
      <point x="194.89" y="206.69" type="curve" smooth="yes"/>
      <point x="194.89" y="227.69"/>
      <point x="182.89" y="234.69"/>
      <point x="156.89" y="234.69" type="curve" smooth="yes"/>
      <point x="112.89" y="234.69" type="line" smooth="yes"/>
      <point x="104.89" y="234.69"/>
      <point x="97.8896" y="241.69"/>
      <point x="97.8896" y="249.69" type="curve" smooth="yes"/>
      <point x="97.8896" y="274.69" type="line" smooth="yes"/>
      <point x="97.8896" y="282.69"/>
      <point x="104.89" y="289.69"/>
      <point x="112.89" y="289.69" type="curve" smooth="yes"/>
      <point x="312.89" y="289.69" type="line" smooth="yes"/>
      <point x="320.89" y="289.69"/>
      <point x="327.89" y="282.69"/>
      <point x="327.89" y="274.69" type="curve" smooth="yes"/>
      <point x="327.89" y="249.69" type="line" smooth="yes"/>
      <point x="327.89" y="241.69"/>
      <point x="320.89" y="234.69"/>
      <point x="312.89" y="234.69" type="curve" smooth="yes"/>
      <point x="268.89" y="234.69" type="line" smooth="yes"/>
      <point x="240.89" y="234.69"/>
      <point x="230.89" y="227.69"/>
      <point x="230.89" y="206.69" type="curve" smooth="yes"/>
      <point x="230.89" y="197.69"/>
      <point x="229.89" y="184.69"/>
    </contour>
    <contour>
      <point x="172.89" y="599.69" type="curve" smooth="yes"/>
      <point x="389.89" y="599.69" type="line" smooth="yes"/>
      <point x="449.89" y="599.69"/>
      <point x="456.89" y="562.69"/>
      <point x="457.89" y="522.69" type="curve" smooth="yes"/>
      <point x="458.89" y="485.69"/>
      <point x="452.89" y="447.69"/>
      <point x="407.89" y="440.69" type="curve" smooth="yes"/>
      <point x="394.89" y="438.69"/>
      <point x="395.89" y="425.69"/>
      <point x="395.89" y="425.69" type="curve"/>
      <point x="402.89" y="376.69"/>
      <point x="424.89" y="-70.3096"/>
      <point x="431.89" y="-125.31" type="curve" smooth="yes"/>
      <point x="433.89" y="-147.31"/>
      <point x="435.89" y="-203.31"/>
      <point x="407.89" y="-260.31" type="curve" smooth="yes"/>
      <point x="389.89" y="-297.31"/>
      <point x="354.89" y="-290.31"/>
      <point x="355.89" y="-255.31" type="curve" smooth="yes"/>
      <point x="363.89" y="425.69" type="line" smooth="yes"/>
      <point x="363.89" y="439.69"/>
      <point x="356.89" y="439.69"/>
      <point x="348.89" y="439.69" type="curve" smooth="yes"/>
      <point x="107.89" y="439.69" type="line" smooth="yes"/>
      <point x="62.8896" y="439.69"/>
      <point x="37.8896" y="491.69"/>
      <point x="33.8896" y="513.69" type="curve" smooth="yes"/>
      <point x="26.8896" y="547.69"/>
      <point x="35.8896" y="596.69"/>
      <point x="51.8896" y="627.69" type="curve" smooth="yes"/>
      <point x="61.8896" y="649.69"/>
      <point x="73.8896" y="648.69"/>
      <point x="81.8896" y="630.69" type="curve" smooth="yes"/>
      <point x="99.8896" y="595.69"/>
      <point x="134.89" y="599.69"/>
    </contour>
  </outline>
</glyph>
<glyph name="uniFB1D" format="2">
  <advance width="266"/>
  <unicode hex="FB1D"/>
  <outline>
    <contour>
      <point x="120" y="234" type="curve" smooth="yes"/>
      <point x="141" y="234"/>
      <point x="158" y="217"/>
      <point x="158" y="197" type="curve" smooth="yes"/>
      <point x="158" y="176"/>
      <point x="141" y="159"/>
      <point x="120" y="159" type="curve" smooth="yes"/>
      <point x="99" y="159"/>
      <point x="82" y="176"/>
      <point x="82" y="197" type="curve" smooth="yes"/>
      <point x="82" y="217"/>
      <point x="99" y="234"/>
    </contour>
    <contour>
      <point x="229" y="419" type="curve" smooth="yes"/>
      <point x="223" y="390"/>
      <point x="206" y="357"/>
      <point x="182" y="324" type="curve" smooth="yes"/>
      <point x="173" y="312"/>
      <point x="161" y="295"/>
      <point x="150" y="304" type="curve" smooth="yes"/>
      <point x="137" y="314"/>
      <point x="146" y="335"/>
      <point x="151" y="344" type="curve" smooth="yes"/>
      <point x="166" y="371"/>
      <point x="178" y="390"/>
      <point x="162" y="415" type="curve" smooth="yes"/>
      <point x="148" y="436"/>
      <point x="127" y="433"/>
      <point x="100" y="445" type="curve" smooth="yes"/>
      <point x="76" y="456"/>
      <point x="53" y="473"/>
      <point x="38" y="508" type="curve" smooth="yes"/>
      <point x="29" y="530"/>
      <point x="28" y="562"/>
      <point x="30" y="579" type="curve" smooth="yes"/>
      <point x="33" y="604"/>
      <point x="39" y="619"/>
      <point x="49" y="631" type="curve" smooth="yes"/>
      <point x="69" y="654"/>
      <point x="79" y="646"/>
      <point x="91" y="626" type="curve" smooth="yes"/>
      <point x="104" y="606"/>
      <point x="118" y="598"/>
      <point x="145" y="592" type="curve" smooth="yes"/>
      <point x="170" y="587"/>
      <point x="200" y="571"/>
      <point x="216" y="541" type="curve" smooth="yes"/>
      <point x="239" y="500"/>
      <point x="237" y="458"/>
    </contour>
  </outline>
</glyph>
<glyph name="uniFB1E" format="2">
  <advance width="0"/>
  <unicode hex="FB1E"/>
  <outline>
    <contour>
      <point x="-92" y="717" type="line" smooth="yes"/>
      <point x="-88" y="724"/>
      <point x="-79" y="726"/>
      <point x="-72" y="723" type="curve" smooth="yes"/>
      <point x="-26" y="702"/>
      <point x="27" y="703"/>
      <point x="72" y="723" type="curve" smooth="yes"/>
      <point x="79" y="726"/>
      <point x="88" y="724"/>
      <point x="92" y="717" type="curve" smooth="yes"/>
      <point x="105" y="696" type="line" smooth="yes"/>
      <point x="109" y="688"/>
      <point x="106" y="680"/>
      <point x="99" y="675" type="curve" smooth="yes"/>
      <point x="52" y="642"/>
      <point x="-54" y="646"/>
      <point x="-99" y="675" type="curve" smooth="yes"/>
      <point x="-106" y="680"/>
      <point x="-109" y="688"/>
      <point x="-105" y="696" type="curve" smooth="yes"/>
    </contour>
  </outline>
</glyph>
<glyph name="uniFB2C" format="2">
  <advance width="716"/>
  <unicode hex="FB2C"/>
  <outline>
    <contour>
      <point x="644" y="705" type="curve" smooth="yes"/>
      <point x="665" y="705"/>
      <point x="682" y="688"/>
      <point x="682" y="668" type="curve" smooth="yes"/>
      <point x="682" y="647"/>
      <point x="665" y="630"/>
      <point x="644" y="630" type="curve" smooth="yes"/>
      <point x="623" y="630"/>
      <point x="606" y="647"/>
      <point x="606" y="668" type="curve" smooth="yes"/>
      <point x="606" y="688"/>
      <point x="623" y="705"/>
    </contour>
    <contour>
      <point x="492" y="227" type="curve" smooth="yes"/>
      <point x="530" y="319"/>
      <point x="584" y="399"/>
      <point x="584" y="399" type="curve" smooth="yes"/>
      <point x="588" y="406"/>
      <point x="590" y="414"/>
      <point x="582" y="420" type="curve" smooth="yes"/>
      <point x="564" y="434"/>
      <point x="517" y="460"/>
      <point x="506" y="506" type="curve" smooth="yes"/>
      <point x="494" y="555"/>
      <point x="507" y="591"/>
      <point x="539" y="628" type="curve" smooth="yes"/>
      <point x="558" y="651"/>
      <point x="577" y="651"/>
      <point x="586" y="628" type="curve" smooth="yes"/>
      <point x="589" y="620"/>
      <point x="604" y="600"/>
      <point x="624" y="588" type="curve" smooth="yes"/>
      <point x="657" y="569"/>
      <point x="681" y="539"/>
      <point x="683" y="503" type="curve" smooth="yes"/>
      <point x="685" y="465"/>
      <point x="676" y="441"/>
      <point x="653" y="412" type="curve" smooth="yes"/>
      <point x="641" y="397"/>
      <point x="635" y="393"/>
      <point x="630" y="394" type="curve" smooth="yes"/>
      <point x="626" y="395"/>
      <point x="622" y="400"/>
      <point x="616" y="390" type="curve" smooth="yes"/>
      <point x="580" y="341"/>
      <point x="550" y="265"/>
      <point x="520" y="149" type="curve" smooth="yes"/>
      <point x="504" y="88"/>
      <point x="490" y="0"/>
      <point x="377" y="0" type="curve" smooth="yes"/>
      <point x="114" y="0" type="line" smooth="yes"/>
      <point x="104" y="0"/>
      <point x="99" y="5"/>
      <point x="99" y="15" type="curve" smooth="yes"/>
      <point x="99" y="37"/>
      <point x="98" y="79"/>
      <point x="95" y="108" type="curve" smooth="yes"/>
      <point x="86" y="208"/>
      <point x="80" y="196"/>
      <point x="79" y="268" type="curve" smooth="yes"/>
      <point x="80" y="308"/>
      <point x="95" y="353"/>
      <point x="107" y="392" type="curve" smooth="yes"/>
      <point x="113" y="410"/>
      <point x="110" y="423"/>
      <point x="100" y="426" type="curve" smooth="yes"/>
      <point x="82" y="433"/>
      <point x="68" y="443"/>
      <point x="57" y="455" type="curve" smooth="yes"/>
      <point x="47" y="466"/>
      <point x="39" y="482"/>
      <point x="36" y="499" type="curve" smooth="yes"/>
      <point x="32" y="518"/>
      <point x="33" y="537"/>
      <point x="35" y="552" type="curve" smooth="yes"/>
      <point x="38" y="575"/>
      <point x="48" y="604"/>
      <point x="55" y="615" type="curve" smooth="yes"/>
      <point x="76" y="650"/>
      <point x="90" y="655"/>
      <point x="108" y="625" type="curve" smooth="yes"/>
      <point x="116" y="611"/>
      <point x="132" y="597"/>
      <point x="156" y="591" type="curve" smooth="yes"/>
      <point x="192" y="581"/>
      <point x="213" y="558"/>
      <point x="225" y="531" type="curve" smooth="yes"/>
      <point x="235" y="510"/>
      <point x="237" y="472"/>
      <point x="230" y="440" type="curve" smooth="yes"/>
      <point x="221" y="400"/>
      <point x="211" y="395"/>
      <point x="201" y="401" type="curve" smooth="yes"/>
      <point x="191" y="407"/>
      <point x="179" y="412"/>
      <point x="162" y="412" type="curve" smooth="yes"/>
      <point x="149" y="412"/>
      <point x="142" y="401"/>
      <point x="137" y="384" type="curve" smooth="yes"/>
      <point x="122" y="335"/>
      <point x="119" y="328"/>
      <point x="126" y="292" type="curve" smooth="yes"/>
      <point x="134" y="249"/>
      <point x="154" y="225"/>
      <point x="163" y="175" type="curve" smooth="yes"/>
      <point x="164" y="166"/>
      <point x="169" y="160"/>
      <point x="180" y="160" type="curve" smooth="yes"/>
      <point x="186" y="160" type="line" smooth="yes"/>
      <point x="196" y="160"/>
      <point x="202" y="165"/>
      <point x="206" y="174" type="curve" smooth="yes"/>
      <point x="318" y="432" type="line" smooth="yes"/>
      <point x="321" y="440"/>
      <point x="323" y="447"/>
      <point x="314" y="454" type="curve" smooth="yes"/>
      <point x="289" y="473"/>
      <point x="279" y="498"/>
      <point x="278" y="531" type="curve" smooth="yes"/>
      <point x="277" y="568"/>
      <point x="288" y="598"/>
      <point x="315" y="628" type="curve" smooth="yes"/>
      <point x="334" y="651"/>
      <point x="353" y="651"/>
      <point x="362" y="628" type="curve" smooth="yes"/>
      <point x="364" y="620"/>
      <point x="379" y="600"/>
      <point x="399" y="588" type="curve" smooth="yes"/>
      <point x="433" y="569"/>
      <point x="456" y="539"/>
      <point x="458" y="503" type="curve" smooth="yes"/>
      <point x="461" y="465"/>
      <point x="451" y="441"/>
      <point x="428" y="412" type="curve" smooth="yes"/>
      <point x="417" y="397"/>
      <point x="399" y="379"/>
      <point x="388" y="392" type="curve" smooth="yes"/>
      <point x="381" y="400"/>
      <point x="376" y="406"/>
      <point x="368" y="412" type="curve" smooth="yes"/>
      <point x="362" y="416"/>
      <point x="352" y="423"/>
      <point x="346" y="408" type="curve" smooth="yes"/>
      <point x="247" y="174" type="line" smooth="yes"/>
      <point x="243" y="163"/>
      <point x="245" y="160"/>
      <point x="257" y="160" type="curve" smooth="yes"/>
      <point x="377" y="160" type="line" smooth="yes"/>
      <point x="427" y="160"/>
      <point x="473" y="181"/>
    </contour>
    <contour>
      <point x="402" y="322" type="curve" smooth="yes"/>
      <point x="423" y="322"/>
      <point x="440" y="306"/>
      <point x="440" y="285" type="curve" smooth="yes"/>
      <point x="440" y="264"/>
      <point x="423" y="248"/>
      <point x="402" y="248" type="curve" smooth="yes"/>
      <point x="381" y="248"/>
      <point x="364" y="264"/>
      <point x="364" y="285" type="curve" smooth="yes"/>
      <point x="364" y="306"/>
      <point x="381" y="322"/>
    </contour>
  </outline>
</glyph>
<glyph name="uniFB2F" format="2">
  <advance width="593"/>
  <unicode hex="FB2F"/>
  <outline>
    <contour>
      <point x="318" y="-173" type="curve"/>
      <point x="317.89" y="-173.31" type="line"/>
      <point x="323.89" y="-179.31"/>
      <point x="327.89" y="-188.31"/>
      <point x="327.89" y="-198.31" type="curve" smooth="yes"/>
      <point x="327.89" y="-218.31"/>
      <point x="310.89" y="-235.31"/>
      <point x="289.89" y="-235.31" type="curve" smooth="yes"/>
      <point x="268.89" y="-235.31"/>
      <point x="251.89" y="-218.31"/>
      <point x="251.89" y="-198.31" type="curve" smooth="yes"/>
      <point x="251.89" y="-188.31"/>
      <point x="255.89" y="-179.31"/>
      <point x="261.89" y="-172.31" type="curve" smooth="yes"/>
      <point x="272.89" y="-160.31"/>
      <point x="271.89" y="-147.31"/>
      <point x="271.89" y="-138.31" type="curve" smooth="yes"/>
      <point x="271.89" y="-117.31"/>
      <point x="259.89" y="-110.31"/>
      <point x="233.89" y="-110.31" type="curve" smooth="yes"/>
      <point x="189.89" y="-110.31" type="line" smooth="yes"/>
      <point x="181.89" y="-110.31"/>
      <point x="174.89" y="-103.31"/>
      <point x="174.89" y="-95.3096" type="curve" smooth="yes"/>
      <point x="174.89" y="-70.3096" type="line" smooth="yes"/>
      <point x="174.89" y="-62.3096"/>
      <point x="181.89" y="-55.3096"/>
      <point x="189.89" y="-55.3096" type="curve" smooth="yes"/>
      <point x="389.89" y="-55.3096" type="line" smooth="yes"/>
      <point x="397.89" y="-55.3096"/>
      <point x="404.89" y="-62.3096"/>
      <point x="404.89" y="-70.3096" type="curve" smooth="yes"/>
      <point x="404.89" y="-95.3096" type="line" smooth="yes"/>
      <point x="404.89" y="-103.31"/>
      <point x="397.89" y="-110.31"/>
      <point x="389.89" y="-110.31" type="curve" smooth="yes"/>
      <point x="345.89" y="-110.31" type="line" smooth="yes"/>
      <point x="317.89" y="-110.31"/>
      <point x="307.89" y="-117.31"/>
      <point x="307.89" y="-138.31" type="curve" smooth="yes"/>
      <point x="307.89" y="-147.31"/>
      <point x="306.89" y="-160.31"/>
    </contour>
    <contour>
      <point x="144.89" y="627.69" type="curve" smooth="yes"/>
      <point x="143.89" y="614.69"/>
      <point x="143.89" y="598.69"/>
      <point x="148.89" y="583.69" type="curve" smooth="yes"/>
      <point x="170.89" y="519.69"/>
      <point x="202.89" y="483.69"/>
      <point x="256.89" y="439.69" type="curve" smooth="yes"/>
      <point x="356.89" y="354.69" type="line"/>
      <point x="356.89" y="354.69"/>
      <point x="367.89" y="347.69"/>
      <point x="373.89" y="358.69" type="curve" smooth="yes"/>
      <point x="373.89" y="358.69"/>
      <point x="397.89" y="403.69"/>
      <point x="403.89" y="415.69" type="curve" smooth="yes"/>
      <point x="408.89" y="425.69"/>
      <point x="405.89" y="436.69"/>
      <point x="397.89" y="442.69" type="curve" smooth="yes"/>
      <point x="368.89" y="467.69"/>
      <point x="354.89" y="482.69"/>
      <point x="347.89" y="520.69" type="curve" smooth="yes"/>
      <point x="343.89" y="544.69"/>
      <point x="351.89" y="579.69"/>
      <point x="357.89" y="591.69" type="curve" smooth="yes"/>
      <point x="368.89" y="614.69"/>
      <point x="381.89" y="626.69"/>
      <point x="395.89" y="635.69" type="curve" smooth="yes"/>
      <point x="427.89" y="654.69"/>
      <point x="425.89" y="639.69"/>
      <point x="440.89" y="608.69" type="curve" smooth="yes"/>
      <point x="445.89" y="597.69"/>
      <point x="455.89" y="589.69"/>
      <point x="466.89" y="582.69" type="curve" smooth="yes"/>
      <point x="490.89" y="567.69"/>
      <point x="535.89" y="544.69"/>
      <point x="547.89" y="501.69" type="curve" smooth="yes"/>
      <point x="562.89" y="448.69"/>
      <point x="545.89" y="415.69"/>
      <point x="528.89" y="379.69" type="curve" smooth="yes"/>
      <point x="521.89" y="363.69"/>
      <point x="505.89" y="350.69"/>
      <point x="498.89" y="361.69" type="curve" smooth="yes"/>
      <point x="488.89" y="377.69"/>
      <point x="474.89" y="390.69"/>
      <point x="457.89" y="400.69" type="curve" smooth="yes"/>
      <point x="448.89" y="405.69"/>
      <point x="436.89" y="403.69"/>
      <point x="431.89" y="393.69" type="curve" smooth="yes"/>
      <point x="401.89" y="337.69" type="line"/>
      <point x="401.89" y="337.69"/>
      <point x="396.89" y="325.69"/>
      <point x="405.89" y="318.69" type="curve" smooth="yes"/>
      <point x="487.89" y="251.69"/>
      <point x="537.89" y="206.69"/>
      <point x="543.89" y="123.69" type="curve" smooth="yes"/>
      <point x="546.89" y="81.6904"/>
      <point x="529.89" y="34.6904"/>
      <point x="498.89" y="9.69043" type="curve" smooth="yes"/>
      <point x="462.89" y="-19.3096"/>
      <point x="461.89" y="20.6904"/>
      <point x="458.89" y="49.6904" type="curve" smooth="yes"/>
      <point x="453.89" y="101.69"/>
      <point x="344.89" y="184.69"/>
      <point x="258.89" y="256.69" type="curve" smooth="yes"/>
      <point x="224.89" y="285.69"/>
      <point x="182.89" y="323.69"/>
      <point x="162.89" y="339.69" type="curve"/>
      <point x="162.89" y="339.69"/>
      <point x="152.89" y="345.69"/>
      <point x="145.89" y="337.69" type="curve" smooth="yes"/>
      <point x="136.89" y="327.69"/>
      <point x="117.89" y="306.69"/>
      <point x="119.89" y="281.69" type="curve" smooth="yes"/>
      <point x="125.89" y="231.69"/>
      <point x="189.89" y="202.69"/>
      <point x="228.89" y="147.69" type="curve" smooth="yes"/>
      <point x="245.89" y="123.69"/>
      <point x="256.89" y="58.6904"/>
      <point x="217.89" y="23.6904" type="curve" smooth="yes"/>
      <point x="197.89" y="5.69043"/>
      <point x="178.89" y="-0.30957"/>
      <point x="151.89" y="-0.30957" type="curve" smooth="yes"/>
      <point x="62.8896" y="-0.30957" type="line" smooth="yes"/>
      <point x="58.8896" y="-0.30957"/>
      <point x="41.8896" y="-1.30957"/>
      <point x="55.8896" y="14.6904" type="curve" smooth="yes"/>
      <point x="59.8896" y="19.6904"/>
      <point x="63.8896" y="27.6904"/>
      <point x="67.8896" y="33.6904" type="curve" smooth="yes"/>
      <point x="73.8896" y="43.6904"/>
      <point x="73.8896" y="56.6904"/>
      <point x="65.8896" y="68.6904" type="curve" smooth="yes"/>
      <point x="52.8896" y="88.6904"/>
      <point x="36.8896" y="117.69"/>
      <point x="41.8896" y="175.69" type="curve" smooth="yes"/>
      <point x="48.8896" y="256.69"/>
      <point x="62.8896" y="287.69"/>
      <point x="123.89" y="357.69" type="curve"/>
      <point x="123.89" y="357.69"/>
      <point x="128.89" y="367.69"/>
      <point x="121.89" y="376.69" type="curve" smooth="yes"/>
      <point x="88.8896" y="414.69"/>
      <point x="61.8896" y="439.69"/>
      <point x="55.8896" y="473.69" type="curve" smooth="yes"/>
      <point x="47.8896" y="517.69"/>
      <point x="50.8896" y="550.69"/>
      <point x="69.8896" y="588.69" type="curve" smooth="yes"/>
      <point x="76.8896" y="603.69"/>
      <point x="96.8896" y="626.69"/>
      <point x="112.89" y="636.69" type="curve" smooth="yes"/>
      <point x="131.89" y="647.69"/>
      <point x="145.89" y="645.69"/>
    </contour>
  </outline>
</glyph>
<glyph name="uniFB30" format="2">
  <advance width="593"/>
  <unicode hex="FB30"/>
  <outline>
    <contour>
      <point x="306" y="174" type="curve"/>
      <point x="306" y="174.5" type="line"/>
      <point x="327" y="174.5"/>
      <point x="344" y="157.5"/>
      <point x="344" y="136.5" type="curve" smooth="yes"/>
      <point x="344" y="115.5"/>
      <point x="327" y="98.5"/>
      <point x="306" y="98.5" type="curve" smooth="yes"/>
      <point x="285" y="98.5"/>
      <point x="268" y="115.5"/>
      <point x="268" y="136.5" type="curve" smooth="yes"/>
      <point x="268" y="157.5"/>
      <point x="285" y="174.5"/>
    </contour>
    <contour>
      <point x="145" y="628.5" type="curve" smooth="yes"/>
      <point x="144" y="615.5"/>
      <point x="144" y="599.5"/>
      <point x="149" y="584.5" type="curve" smooth="yes"/>
      <point x="171" y="520.5"/>
      <point x="203" y="484.5"/>
      <point x="257" y="440.5" type="curve" smooth="yes"/>
      <point x="357" y="355.5" type="line"/>
      <point x="357" y="355.5"/>
      <point x="368" y="348.5"/>
      <point x="374" y="359.5" type="curve" smooth="yes"/>
      <point x="374" y="359.5"/>
      <point x="398" y="404.5"/>
      <point x="404" y="416.5" type="curve" smooth="yes"/>
      <point x="409" y="426.5"/>
      <point x="406" y="437.5"/>
      <point x="398" y="443.5" type="curve" smooth="yes"/>
      <point x="369" y="468.5"/>
      <point x="355" y="483.5"/>
      <point x="348" y="521.5" type="curve" smooth="yes"/>
      <point x="344" y="545.5"/>
      <point x="352" y="580.5"/>
      <point x="358" y="592.5" type="curve" smooth="yes"/>
      <point x="369" y="615.5"/>
      <point x="382" y="627.5"/>
      <point x="396" y="636.5" type="curve" smooth="yes"/>
      <point x="428" y="655.5"/>
      <point x="426" y="640.5"/>
      <point x="441" y="609.5" type="curve" smooth="yes"/>
      <point x="446" y="598.5"/>
      <point x="456" y="590.5"/>
      <point x="467" y="583.5" type="curve" smooth="yes"/>
      <point x="491" y="568.5"/>
      <point x="536" y="545.5"/>
      <point x="548" y="502.5" type="curve" smooth="yes"/>
      <point x="563" y="449.5"/>
      <point x="546" y="416.5"/>
      <point x="529" y="380.5" type="curve" smooth="yes"/>
      <point x="522" y="364.5"/>
      <point x="506" y="351.5"/>
      <point x="499" y="362.5" type="curve" smooth="yes"/>
      <point x="489" y="378.5"/>
      <point x="475" y="391.5"/>
      <point x="458" y="401.5" type="curve" smooth="yes"/>
      <point x="449" y="406.5"/>
      <point x="437" y="404.5"/>
      <point x="432" y="394.5" type="curve" smooth="yes"/>
      <point x="402" y="338.5" type="line"/>
      <point x="402" y="338.5"/>
      <point x="397" y="326.5"/>
      <point x="406" y="319.5" type="curve" smooth="yes"/>
      <point x="488" y="252.5"/>
      <point x="538" y="207.5"/>
      <point x="544" y="124.5" type="curve" smooth="yes"/>
      <point x="547" y="82.5"/>
      <point x="530" y="35.5"/>
      <point x="499" y="10.5" type="curve" smooth="yes"/>
      <point x="463" y="-18.5"/>
      <point x="462" y="21.5"/>
      <point x="459" y="50.5" type="curve" smooth="yes"/>
      <point x="454" y="102.5"/>
      <point x="345" y="185.5"/>
      <point x="259" y="257.5" type="curve" smooth="yes"/>
      <point x="225" y="286.5"/>
      <point x="183" y="324.5"/>
      <point x="163" y="340.5" type="curve"/>
      <point x="163" y="340.5"/>
      <point x="153" y="346.5"/>
      <point x="146" y="338.5" type="curve" smooth="yes"/>
      <point x="137" y="328.5"/>
      <point x="118" y="307.5"/>
      <point x="120" y="282.5" type="curve" smooth="yes"/>
      <point x="126" y="232.5"/>
      <point x="190" y="203.5"/>
      <point x="229" y="148.5" type="curve" smooth="yes"/>
      <point x="246" y="124.5"/>
      <point x="257" y="59.5"/>
      <point x="218" y="24.5" type="curve" smooth="yes"/>
      <point x="198" y="6.5"/>
      <point x="179" y="0.5"/>
      <point x="152" y="0.5" type="curve" smooth="yes"/>
      <point x="63" y="0.5" type="line" smooth="yes"/>
      <point x="59" y="0.5"/>
      <point x="42" y="-0.5"/>
      <point x="56" y="15.5" type="curve" smooth="yes"/>
      <point x="60" y="20.5"/>
      <point x="64" y="28.5"/>
      <point x="68" y="34.5" type="curve" smooth="yes"/>
      <point x="74" y="44.5"/>
      <point x="74" y="57.5"/>
      <point x="66" y="69.5" type="curve" smooth="yes"/>
      <point x="53" y="89.5"/>
      <point x="37" y="118.5"/>
      <point x="42" y="176.5" type="curve" smooth="yes"/>
      <point x="49" y="257.5"/>
      <point x="63" y="288.5"/>
      <point x="124" y="358.5" type="curve"/>
      <point x="124" y="358.5"/>
      <point x="129" y="368.5"/>
      <point x="122" y="377.5" type="curve" smooth="yes"/>
      <point x="89" y="415.5"/>
      <point x="62" y="440.5"/>
      <point x="56" y="474.5" type="curve" smooth="yes"/>
      <point x="48" y="518.5"/>
      <point x="51" y="551.5"/>
      <point x="70" y="589.5" type="curve" smooth="yes"/>
      <point x="77" y="604.5"/>
      <point x="97" y="627.5"/>
      <point x="113" y="637.5" type="curve" smooth="yes"/>
      <point x="132" y="648.5"/>
      <point x="146" y="646.5"/>
    </contour>
  </outline>
</glyph>
<glyph name="uniFB31" format="2">
  <advance width="498"/>
  <unicode hex="FB31"/>
  <outline>
    <contour>
      <point x="240" y="338" type="curve"/>
      <point x="240" y="338.5" type="line"/>
      <point x="261" y="338.5"/>
      <point x="278" y="321.5"/>
      <point x="278" y="300.5" type="curve" smooth="yes"/>
      <point x="278" y="279.5"/>
      <point x="261" y="262.5"/>
      <point x="240" y="262.5" type="curve" smooth="yes"/>
      <point x="219" y="262.5"/>
      <point x="202" y="279.5"/>
      <point x="202" y="300.5" type="curve" smooth="yes"/>
      <point x="202" y="321.5"/>
      <point x="219" y="338.5"/>
    </contour>
    <contour>
      <point x="477" y="160.5" type="line" smooth="yes"/>
      <point x="493" y="160.5"/>
      <point x="499" y="151.5"/>
      <point x="493" y="138.5" type="curve" smooth="yes"/>
      <point x="445" y="21.5" type="line" smooth="yes"/>
      <point x="440" y="7.5"/>
      <point x="430" y="0.5"/>
      <point x="414" y="0.5" type="curve" smooth="yes"/>
      <point x="40" y="0.5" type="line" smooth="yes"/>
      <point x="24" y="0.5"/>
      <point x="18" y="9.5"/>
      <point x="23" y="22.5" type="curve" smooth="yes"/>
      <point x="71" y="139.5" type="line" smooth="yes"/>
      <point x="77" y="153.5"/>
      <point x="86" y="160.5"/>
      <point x="102" y="160.5" type="curve" smooth="yes"/>
      <point x="403" y="160.5" type="line" smooth="yes"/>
      <point x="412" y="160.5"/>
      <point x="419" y="161.5"/>
      <point x="419" y="176.5" type="curve" smooth="yes"/>
      <point x="421" y="241.5"/>
      <point x="410" y="362.5"/>
      <point x="369" y="396.5" type="curve" smooth="yes"/>
      <point x="290" y="462.5"/>
      <point x="184" y="429.5"/>
      <point x="122" y="446.5" type="curve" smooth="yes"/>
      <point x="65" y="462.5"/>
      <point x="58" y="496.5"/>
      <point x="53" y="518.5" type="curve" smooth="yes"/>
      <point x="44" y="559.5"/>
      <point x="52" y="597.5"/>
      <point x="67" y="628.5" type="curve" smooth="yes"/>
      <point x="78" y="650.5"/>
      <point x="89" y="649.5"/>
      <point x="98" y="631.5" type="curve" smooth="yes"/>
      <point x="115" y="596.5"/>
      <point x="150" y="602.5"/>
      <point x="188" y="600.5" type="curve" smooth="yes"/>
      <point x="239" y="597.5"/>
      <point x="336" y="601.5"/>
      <point x="388" y="538.5" type="curve" smooth="yes"/>
      <point x="447" y="467.5"/>
      <point x="451" y="323.5"/>
      <point x="446" y="174.5" type="curve"/>
      <point x="446" y="174.5"/>
      <point x="447" y="160.5"/>
      <point x="461" y="160.5" type="curve" smooth="yes"/>
    </contour>
  </outline>
</glyph>
<glyph name="uniFB32" format="2">
  <advance width="339"/>
  <unicode hex="FB32"/>
  <outline>
    <contour>
      <point x="150" y="338" type="curve"/>
      <point x="150" y="338.5" type="line"/>
      <point x="171" y="338.5"/>
      <point x="188" y="321.5"/>
      <point x="188" y="300.5" type="curve" smooth="yes"/>
      <point x="188" y="279.5"/>
      <point x="171" y="262.5"/>
      <point x="150" y="262.5" type="curve" smooth="yes"/>
      <point x="129" y="262.5"/>
      <point x="112" y="279.5"/>
      <point x="112" y="300.5" type="curve" smooth="yes"/>
      <point x="112" y="321.5"/>
      <point x="129" y="338.5"/>
    </contour>
    <contour>
      <point x="187" y="21.5" type="line" smooth="yes"/>
      <point x="181" y="7.5"/>
      <point x="172" y="0.5"/>
      <point x="156" y="0.5" type="curve" smooth="yes"/>
      <point x="28" y="0.5" type="line" smooth="yes"/>
      <point x="12" y="0.5"/>
      <point x="6" y="9.5"/>
      <point x="11" y="22.5" type="curve" smooth="yes"/>
      <point x="59" y="139.5" type="line" smooth="yes"/>
      <point x="65" y="153.5"/>
      <point x="74" y="160.5"/>
      <point x="90" y="160.5" type="curve" smooth="yes"/>
      <point x="196" y="160.5" type="line" smooth="yes"/>
      <point x="217" y="160.5"/>
      <point x="228" y="172.5"/>
      <point x="228" y="194.5" type="curve" smooth="yes"/>
      <point x="228" y="280.5"/>
      <point x="229" y="322.5"/>
      <point x="236" y="400.5" type="curve"/>
      <point x="236" y="400.5"/>
      <point x="238" y="422.5"/>
      <point x="215" y="425.5" type="curve" smooth="yes"/>
      <point x="176" y="431.5"/>
      <point x="140" y="436.5"/>
      <point x="113" y="461.5" type="curve" smooth="yes"/>
      <point x="102" y="472.5"/>
      <point x="91" y="488.5"/>
      <point x="86" y="505.5" type="curve" smooth="yes"/>
      <point x="80" y="523.5"/>
      <point x="80" y="543.5"/>
      <point x="80" y="558.5" type="curve" smooth="yes"/>
      <point x="82" y="581.5"/>
      <point x="90" y="607.5"/>
      <point x="97" y="618.5" type="curve" smooth="yes"/>
      <point x="118" y="650.5"/>
      <point x="129" y="653.5"/>
      <point x="148" y="624.5" type="curve" smooth="yes"/>
      <point x="160" y="604.5"/>
      <point x="188" y="598.5"/>
      <point x="201" y="594.5" type="curve" smooth="yes"/>
      <point x="242" y="584.5"/>
      <point x="268" y="558.5"/>
      <point x="274" y="526.5" type="curve" smooth="yes"/>
      <point x="280" y="493.5"/>
      <point x="260" y="454.5"/>
      <point x="262" y="408.5" type="curve" smooth="yes"/>
      <point x="266" y="321.5"/>
      <point x="309" y="208.5"/>
      <point x="314" y="163.5" type="curve" smooth="yes"/>
      <point x="320" y="110.5"/>
      <point x="318" y="80.5"/>
      <point x="297" y="26.5" type="curve" smooth="yes"/>
      <point x="278" y="-22.5"/>
      <point x="262" y="7.5"/>
      <point x="258" y="28.5" type="curve" smooth="yes"/>
      <point x="253" y="58.5"/>
      <point x="246" y="100.5"/>
      <point x="240" y="120.5" type="curve" smooth="yes"/>
      <point x="236" y="134.5"/>
      <point x="229" y="128.5"/>
      <point x="224" y="116.5" type="curve" smooth="yes"/>
    </contour>
  </outline>
</glyph>
<glyph name="afii57723" format="2">
  <advance width="266"/>
  <unicode hex="FB35"/>
  <outline>
    <contour>
      <point x="78" y="338" type="curve"/>
      <point x="78" y="338.5" type="line"/>
      <point x="99" y="338.5"/>
      <point x="116" y="321.5"/>
      <point x="116" y="300.5" type="curve" smooth="yes"/>
      <point x="116" y="279.5"/>
      <point x="99" y="262.5"/>
      <point x="78" y="262.5" type="curve" smooth="yes"/>
      <point x="57" y="262.5"/>
      <point x="40" y="279.5"/>
      <point x="40" y="300.5" type="curve" smooth="yes"/>
      <point x="40" y="321.5"/>
      <point x="57" y="338.5"/>
    </contour>
    <contour>
      <point x="221" y="523.5" type="curve" smooth="yes"/>
      <point x="228" y="485.5"/>
      <point x="220" y="448.5"/>
      <point x="196" y="418.5" type="curve" smooth="yes"/>
      <point x="192" y="412.5"/>
      <point x="185" y="401.5"/>
      <point x="187" y="390.5" type="curve" smooth="yes"/>
      <point x="198" y="322.5"/>
      <point x="214" y="210.5"/>
      <point x="220" y="155.5" type="curve" smooth="yes"/>
      <point x="223" y="133.5"/>
      <point x="224" y="77.5"/>
      <point x="196" y="20.5" type="curve" smooth="yes"/>
      <point x="179" y="-16.5"/>
      <point x="143" y="-9.5"/>
      <point x="144" y="25.5" type="curve" smooth="yes"/>
      <point x="144" y="25.5"/>
      <point x="153" y="268.5"/>
      <point x="155" y="392.5" type="curve" smooth="yes"/>
      <point x="156" y="406.5"/>
      <point x="147" y="419.5"/>
      <point x="134" y="423.5" type="curve" smooth="yes"/>
      <point x="118" y="427.5"/>
      <point x="91" y="435.5"/>
      <point x="75" y="446.5" type="curve" smooth="yes"/>
      <point x="58" y="458.5"/>
      <point x="44" y="476.5"/>
      <point x="38" y="496.5" type="curve" smooth="yes"/>
      <point x="32" y="515.5"/>
      <point x="31" y="543.5"/>
      <point x="32" y="558.5" type="curve" smooth="yes"/>
      <point x="33" y="581.5"/>
      <point x="41" y="607.5"/>
      <point x="48" y="618.5" type="curve" smooth="yes"/>
      <point x="68" y="650.5"/>
      <point x="80" y="653.5"/>
      <point x="98" y="624.5" type="curve" smooth="yes"/>
      <point x="111" y="604.5"/>
      <point x="138" y="598.5"/>
      <point x="152" y="594.5" type="curve" smooth="yes"/>
      <point x="193" y="584.5"/>
      <point x="215" y="554.5"/>
    </contour>
  </outline>
</glyph>
<glyph name="uniFB37" format="2">
  <advance width="559"/>
  <unicode hex="FB37"/>
  <outline>
    <contour>
      <point x="276" y="338" type="curve"/>
      <point x="276" y="338.5" type="line"/>
      <point x="297" y="338.5"/>
      <point x="314" y="321.5"/>
      <point x="314" y="300.5" type="curve" smooth="yes"/>
      <point x="314" y="279.5"/>
      <point x="297" y="262.5"/>
      <point x="276" y="262.5" type="curve" smooth="yes"/>
      <point x="255" y="262.5"/>
      <point x="238" y="279.5"/>
      <point x="238" y="300.5" type="curve" smooth="yes"/>
      <point x="238" y="321.5"/>
      <point x="255" y="338.5"/>
    </contour>
    <contour>
      <point x="158" y="440.5" type="line"/>
      <point x="143" y="427.5"/>
      <point x="132" y="402.5"/>
      <point x="129" y="383.5" type="curve" smooth="yes"/>
      <point x="120" y="330.5"/>
      <point x="132" y="243.5"/>
      <point x="133" y="220.5" type="curve" smooth="yes"/>
      <point x="136" y="153.5"/>
      <point x="141" y="102.5"/>
      <point x="103" y="26.5" type="curve" smooth="yes"/>
      <point x="81" y="-17.5"/>
      <point x="52" y="-13.5"/>
      <point x="55" y="27.5" type="curve" smooth="yes"/>
      <point x="63" y="113.5"/>
      <point x="54" y="193.5"/>
      <point x="58" y="259.5" type="curve" smooth="yes"/>
      <point x="61" y="306.5"/>
      <point x="65" y="371.5"/>
      <point x="113" y="440.5" type="curve"/>
      <point x="47" y="451.5"/>
      <point x="45" y="492.5"/>
      <point x="41" y="514.5" type="curve" smooth="yes"/>
      <point x="34" y="548.5"/>
      <point x="44" y="597.5"/>
      <point x="59" y="628.5" type="curve" smooth="yes"/>
      <point x="70" y="650.5"/>
      <point x="81" y="649.5"/>
      <point x="90" y="631.5" type="curve" smooth="yes"/>
      <point x="107" y="596.5"/>
      <point x="142" y="600.5"/>
      <point x="180" y="600.5" type="curve" smooth="yes"/>
      <point x="451" y="600.5" type="line" smooth="yes"/>
      <point x="511" y="600.5"/>
      <point x="518" y="563.5"/>
      <point x="519" y="523.5" type="curve" smooth="yes"/>
      <point x="520" y="486.5"/>
      <point x="514" y="448.5"/>
      <point x="469" y="441.5" type="curve" smooth="yes"/>
      <point x="456" y="439.5"/>
      <point x="457" y="426.5"/>
      <point x="457" y="426.5" type="curve"/>
      <point x="464" y="377.5"/>
      <point x="501" y="210.5"/>
      <point x="507" y="155.5" type="curve" smooth="yes"/>
      <point x="510" y="133.5"/>
      <point x="511" y="77.5"/>
      <point x="483" y="20.5" type="curve" smooth="yes"/>
      <point x="466" y="-16.5"/>
      <point x="430" y="-9.5"/>
      <point x="431" y="25.5" type="curve" smooth="yes"/>
      <point x="425" y="426.5" type="line" smooth="yes"/>
      <point x="425" y="440.5"/>
      <point x="418" y="440.5"/>
      <point x="410" y="440.5" type="curve" smooth="yes"/>
    </contour>
  </outline>
</glyph>
<glyph name="uniFB3A" format="2">
  <advance width="496"/>
  <unicode hex="FB3A"/>
  <outline>
    <contour>
      <point x="282" y="338" type="curve"/>
      <point x="282" y="338.5" type="line"/>
      <point x="303" y="338.5"/>
      <point x="320" y="321.5"/>
      <point x="320" y="300.5" type="curve" smooth="yes"/>
      <point x="320" y="279.5"/>
      <point x="303" y="262.5"/>
      <point x="282" y="262.5" type="curve" smooth="yes"/>
      <point x="261" y="262.5"/>
      <point x="244" y="279.5"/>
      <point x="244" y="300.5" type="curve" smooth="yes"/>
      <point x="244" y="321.5"/>
      <point x="261" y="338.5"/>
    </contour>
    <contour>
      <point x="173" y="600.5" type="curve" smooth="yes"/>
      <point x="390" y="600.5" type="line" smooth="yes"/>
      <point x="450" y="600.5"/>
      <point x="457" y="563.5"/>
      <point x="458" y="523.5" type="curve" smooth="yes"/>
      <point x="459" y="486.5"/>
      <point x="453" y="448.5"/>
      <point x="408" y="441.5" type="curve" smooth="yes"/>
      <point x="395" y="439.5"/>
      <point x="396" y="426.5"/>
      <point x="396" y="426.5" type="curve"/>
      <point x="403" y="377.5"/>
      <point x="425" y="-69.5"/>
      <point x="432" y="-124.5" type="curve" smooth="yes"/>
      <point x="434" y="-146.5"/>
      <point x="436" y="-202.5"/>
      <point x="408" y="-259.5" type="curve" smooth="yes"/>
      <point x="390" y="-296.5"/>
      <point x="355" y="-289.5"/>
      <point x="356" y="-254.5" type="curve" smooth="yes"/>
      <point x="364" y="426.5" type="line" smooth="yes"/>
      <point x="364" y="440.5"/>
      <point x="357" y="440.5"/>
      <point x="349" y="440.5" type="curve" smooth="yes"/>
      <point x="108" y="440.5" type="line" smooth="yes"/>
      <point x="63" y="440.5"/>
      <point x="38" y="492.5"/>
      <point x="34" y="514.5" type="curve" smooth="yes"/>
      <point x="27" y="548.5"/>
      <point x="36" y="597.5"/>
      <point x="52" y="628.5" type="curve" smooth="yes"/>
      <point x="62" y="650.5"/>
      <point x="74" y="649.5"/>
      <point x="82" y="631.5" type="curve" smooth="yes"/>
      <point x="100" y="596.5"/>
      <point x="135" y="600.5"/>
    </contour>
  </outline>
</glyph>
<glyph name="uniFB3B" format="2">
  <advance width="501"/>
  <unicode hex="FB3B"/>
  <outline>
    <contour>
      <point x="258" y="338" type="curve"/>
      <point x="258" y="338.5" type="line"/>
      <point x="279" y="338.5"/>
      <point x="296" y="321.5"/>
      <point x="296" y="300.5" type="curve" smooth="yes"/>
      <point x="296" y="279.5"/>
      <point x="279" y="262.5"/>
      <point x="258" y="262.5" type="curve" smooth="yes"/>
      <point x="237" y="262.5"/>
      <point x="220" y="279.5"/>
      <point x="220" y="300.5" type="curve" smooth="yes"/>
      <point x="220" y="321.5"/>
      <point x="237" y="338.5"/>
    </contour>
    <contour>
      <point x="479" y="185.5" type="curve"/>
      <point x="479.23" y="185.5" type="line"/>
      <point x="478.23" y="162.5"/>
      <point x="470.23" y="144.5"/>
      <point x="470.23" y="144.5" type="curve"/>
      <point x="412.23" y="21.5" type="line" smooth="yes"/>
      <point x="405.23" y="8.5"/>
      <point x="397.23" y="0.5"/>
      <point x="381.23" y="0.5" type="curve" smooth="yes"/>
      <point x="36.2305" y="0.5" type="line" smooth="yes"/>
      <point x="20.2305" y="0.5"/>
      <point x="14.2305" y="9.5"/>
      <point x="20.2305" y="22.5" type="curve" smooth="yes"/>
      <point x="68.2305" y="139.5" type="line" smooth="yes"/>
      <point x="73.2305" y="153.5"/>
      <point x="82.2305" y="160.5"/>
      <point x="98.2305" y="160.5" type="curve" smooth="yes"/>
      <point x="435.23" y="160.5" type="line" smooth="yes"/>
      <point x="444.23" y="160.5"/>
      <point x="451.23" y="161.5"/>
      <point x="451.23" y="176.5" type="curve" smooth="yes"/>
      <point x="453.23" y="242.5"/>
      <point x="444.23" y="292.5"/>
      <point x="427.23" y="333.5" type="curve" smooth="yes"/>
      <point x="411.23" y="372.5"/>
      <point x="380.23" y="404.5"/>
      <point x="346.23" y="421.5" type="curve" smooth="yes"/>
      <point x="279.23" y="454.5"/>
      <point x="178.23" y="432.5"/>
      <point x="129.23" y="446.5" type="curve" smooth="yes"/>
      <point x="72.2305" y="462.5"/>
      <point x="65.2305" y="496.5"/>
      <point x="60.2305" y="518.5" type="curve" smooth="yes"/>
      <point x="51.2305" y="559.5"/>
      <point x="59.2305" y="597.5"/>
      <point x="74.2305" y="628.5" type="curve" smooth="yes"/>
      <point x="85.2305" y="650.5"/>
      <point x="96.2305" y="649.5"/>
      <point x="105.23" y="631.5" type="curve" smooth="yes"/>
      <point x="122.23" y="596.5"/>
      <point x="157.23" y="602.5"/>
      <point x="196.23" y="600.5" type="curve" smooth="yes"/>
      <point x="245.23" y="596.5"/>
      <point x="365.23" y="604.5"/>
      <point x="421.23" y="532.5" type="curve" smooth="yes"/>
      <point x="477.23" y="460.5"/>
      <point x="483.23" y="328.5"/>
    </contour>
  </outline>
</glyph>
<glyph name="uniFB3D" format="2">
  <advance width="542"/>
  <unicode hex="FB3D"/>
  <outline>
    <contour>
      <point x="284" y="338" type="curve"/>
      <point x="284" y="338.5" type="line"/>
      <point x="305" y="338.5"/>
      <point x="322" y="321.5"/>
      <point x="322" y="300.5" type="curve" smooth="yes"/>
      <point x="322" y="279.5"/>
      <point x="305" y="262.5"/>
      <point x="284" y="262.5" type="curve" smooth="yes"/>
      <point x="263" y="262.5"/>
      <point x="246" y="279.5"/>
      <point x="246" y="300.5" type="curve" smooth="yes"/>
      <point x="246" y="321.5"/>
      <point x="263" y="338.5"/>
    </contour>
    <contour>
      <point x="184" y="600.5" type="curve" smooth="yes"/>
      <point x="378.5" y="600.5" type="line" smooth="yes"/>
      <point x="466.5" y="600.5"/>
      <point x="498.5" y="522.5"/>
      <point x="498.5" y="440.5" type="curve" smooth="yes"/>
      <point x="498.5" y="25.5" type="line" smooth="yes"/>
      <point x="498.5" y="10.5"/>
      <point x="489.5" y="0.5"/>
      <point x="468.5" y="0.5" type="curve" smooth="yes"/>
      <point x="78.5" y="0.5" type="line" smooth="yes"/>
      <point x="62.5" y="0.5"/>
      <point x="52.5" y="6.5"/>
      <point x="52.5" y="26.5" type="curve" smooth="yes"/>
      <point x="53.5" y="240.5" type="line" smooth="yes"/>
      <point x="53.5" y="341.5"/>
      <point x="92.5" y="405.5"/>
      <point x="118.5" y="440.5" type="curve"/>
      <point x="65.5" y="440.5"/>
      <point x="48.5" y="492.5"/>
      <point x="44.5" y="514.5" type="curve" smooth="yes"/>
      <point x="38.5" y="548.5"/>
      <point x="47.5" y="597.5"/>
      <point x="62.5" y="628.5" type="curve" smooth="yes"/>
      <point x="73.5" y="650.5"/>
      <point x="84.5" y="649.5"/>
      <point x="93.5" y="631.5" type="curve" smooth="yes"/>
      <point x="110.5" y="596.5"/>
      <point x="145.5" y="600.5"/>
    </contour>
    <contour>
      <point x="153.5" y="440.5" type="line"/>
      <point x="138.5" y="411.5"/>
      <point x="116.5" y="366.5"/>
      <point x="116.5" y="297.5" type="curve" smooth="yes"/>
      <point x="116.5" y="185.5" type="line" smooth="yes"/>
      <point x="116.5" y="169.5"/>
      <point x="124.5" y="160.5"/>
      <point x="142.5" y="160.5" type="curve" smooth="yes"/>
      <point x="438.5" y="160.5" type="line" smooth="yes"/>
      <point x="453.5" y="160.5"/>
      <point x="465.5" y="167.5"/>
      <point x="465.5" y="189.5" type="curve" smooth="yes"/>
      <point x="465.5" y="344.5" type="line" smooth="yes"/>
      <point x="465.5" y="394.5"/>
      <point x="427.5" y="440.5"/>
      <point x="369.5" y="440.5" type="curve" smooth="yes"/>
    </contour>
  </outline>
</glyph>
<glyph name="uniFB40" format="2">
  <advance width="347"/>
  <unicode hex="FB40"/>
  <outline>
    <contour>
      <point x="148" y="338" type="curve"/>
      <point x="148" y="338.5" type="line"/>
      <point x="169" y="338.5"/>
      <point x="186" y="321.5"/>
      <point x="186" y="300.5" type="curve" smooth="yes"/>
      <point x="186" y="279.5"/>
      <point x="169" y="262.5"/>
      <point x="148" y="262.5" type="curve" smooth="yes"/>
      <point x="127" y="262.5"/>
      <point x="110" y="279.5"/>
      <point x="110" y="300.5" type="curve" smooth="yes"/>
      <point x="110" y="321.5"/>
      <point x="127" y="338.5"/>
    </contour>
    <contour>
      <point x="217" y="0.5" type="curve" smooth="yes"/>
      <point x="24" y="0.5" type="line" smooth="yes"/>
      <point x="8" y="0.5"/>
      <point x="3" y="9.5"/>
      <point x="8" y="22.5" type="curve" smooth="yes"/>
      <point x="56" y="139.5" type="line" smooth="yes"/>
      <point x="62" y="153.5"/>
      <point x="71" y="160.5"/>
      <point x="87" y="160.5" type="curve" smooth="yes"/>
      <point x="212" y="160.5" type="line" smooth="yes"/>
      <point x="230" y="160.5"/>
      <point x="235" y="170.5"/>
      <point x="234" y="184.5" type="curve" smooth="yes"/>
      <point x="226" y="298.5"/>
      <point x="231" y="322.5"/>
      <point x="238" y="400.5" type="curve"/>
      <point x="238" y="400.5"/>
      <point x="239" y="422.5"/>
      <point x="217" y="425.5" type="curve" smooth="yes"/>
      <point x="177" y="431.5"/>
      <point x="146" y="436.5"/>
      <point x="120" y="461.5" type="curve" smooth="yes"/>
      <point x="108" y="472.5"/>
      <point x="98" y="488.5"/>
      <point x="92" y="505.5" type="curve" smooth="yes"/>
      <point x="87" y="523.5"/>
      <point x="86" y="543.5"/>
      <point x="87" y="558.5" type="curve" smooth="yes"/>
      <point x="88" y="581.5"/>
      <point x="97" y="607.5"/>
      <point x="104" y="618.5" type="curve" smooth="yes"/>
      <point x="124" y="650.5"/>
      <point x="139" y="653.5"/>
      <point x="158" y="624.5" type="curve" smooth="yes"/>
      <point x="170" y="604.5"/>
      <point x="204" y="598.5"/>
      <point x="217" y="594.5" type="curve" smooth="yes"/>
      <point x="258" y="584.5"/>
      <point x="285" y="558.5"/>
      <point x="292" y="526.5" type="curve" smooth="yes"/>
      <point x="306" y="462.5"/>
      <point x="270" y="436.5"/>
      <point x="270" y="408.5" type="curve" smooth="yes"/>
      <point x="269" y="335.5"/>
      <point x="308" y="272.5"/>
      <point x="313" y="176.5" type="curve" smooth="yes"/>
      <point x="316" y="123.5"/>
      <point x="318" y="85.5"/>
      <point x="297" y="42.5" type="curve" smooth="yes"/>
      <point x="276" y="0.5"/>
      <point x="234" y="0.5"/>
    </contour>
  </outline>
</glyph>
<glyph name="uniFB44" format="2">
  <advance width="491"/>
  <unicode hex="FB44"/>
  <outline>
    <contour>
      <point x="360" y="314" type="curve"/>
      <point x="360" y="314.5" type="line"/>
      <point x="381" y="314.5"/>
      <point x="398" y="297.5"/>
      <point x="398" y="276.5" type="curve" smooth="yes"/>
      <point x="398" y="255.5"/>
      <point x="381" y="238.5"/>
      <point x="360" y="238.5" type="curve" smooth="yes"/>
      <point x="339" y="238.5"/>
      <point x="322" y="255.5"/>
      <point x="322" y="276.5" type="curve" smooth="yes"/>
      <point x="322" y="297.5"/>
      <point x="339" y="314.5"/>
    </contour>
    <contour>
      <point x="154" y="443.5" type="curve"/>
      <point x="154" y="443.19" type="line"/>
      <point x="131" y="432.19"/>
      <point x="125" y="418.19"/>
      <point x="126" y="400.19" type="curve" smooth="yes"/>
      <point x="128" y="368.19"/>
      <point x="180" y="370.19"/>
      <point x="228" y="371.19" type="curve" smooth="yes"/>
      <point x="259" y="372.19"/>
      <point x="285" y="351.19"/>
      <point x="292" y="317.19" type="curve" smooth="yes"/>
      <point x="299" y="285.19"/>
      <point x="296" y="251.19"/>
      <point x="262" y="230.19" type="curve" smooth="yes"/>
      <point x="228" y="209.19"/>
      <point x="157" y="218.19"/>
      <point x="125" y="224.19" type="curve"/>
      <point x="115" y="217.19"/>
      <point x="105" y="205.19"/>
      <point x="89" y="193.19" type="curve" smooth="yes"/>
      <point x="80" y="186.19"/>
      <point x="68" y="183.19"/>
      <point x="60" y="191.19" type="curve" smooth="yes"/>
      <point x="52" y="199.19"/>
      <point x="56" y="212.19"/>
      <point x="64" y="219.19" type="curve" smooth="yes"/>
      <point x="79" y="232.19"/>
      <point x="78" y="230.19"/>
      <point x="91" y="243.19" type="curve"/>
      <point x="58" y="273.19"/>
      <point x="50" y="301.19"/>
      <point x="54" y="342.19" type="curve" smooth="yes"/>
      <point x="59" y="393.19"/>
      <point x="94" y="427.19"/>
      <point x="125" y="452.19" type="curve"/>
      <point x="83" y="469.19"/>
      <point x="77" y="498.19"/>
      <point x="73" y="518.19" type="curve" smooth="yes"/>
      <point x="64" y="559.19"/>
      <point x="72" y="597.19"/>
      <point x="87" y="628.19" type="curve" smooth="yes"/>
      <point x="98" y="650.19"/>
      <point x="109" y="649.19"/>
      <point x="118" y="631.19" type="curve" smooth="yes"/>
      <point x="135" y="596.19"/>
      <point x="170" y="602.19"/>
      <point x="208" y="600.19" type="curve" smooth="yes"/>
      <point x="259" y="597.19"/>
      <point x="369" y="600.19"/>
      <point x="419" y="529.19" type="curve" smooth="yes"/>
      <point x="466" y="463.19"/>
      <point x="471" y="328.19"/>
      <point x="467" y="185.19" type="curve" smooth="yes"/>
      <point x="466" y="162.19"/>
      <point x="464" y="155.19"/>
      <point x="460" y="144.19" type="curve" smooth="yes"/>
      <point x="409" y="21.1904" type="line" smooth="yes"/>
      <point x="403" y="8.19043"/>
      <point x="394" y="0.19043"/>
      <point x="378" y="0.19043" type="curve" smooth="yes"/>
      <point x="34" y="0.19043" type="line" smooth="yes"/>
      <point x="18" y="0.19043"/>
      <point x="13" y="9.19043"/>
      <point x="18" y="22.1904" type="curve" smooth="yes"/>
      <point x="66" y="139.19" type="line" smooth="yes"/>
      <point x="72" y="153.19"/>
      <point x="81" y="160.19"/>
      <point x="97" y="160.19" type="curve" smooth="yes"/>
      <point x="420" y="160.19" type="line" smooth="yes"/>
      <point x="429" y="160.19"/>
      <point x="436" y="166.19"/>
      <point x="437" y="176.19" type="curve" smooth="yes"/>
      <point x="438" y="243.19"/>
      <point x="433" y="339.19"/>
      <point x="402" y="382.19" type="curve" smooth="yes"/>
      <point x="344" y="462.19"/>
      <point x="217" y="432.19"/>
    </contour>
  </outline>
</glyph>
<glyph name="uniFB45" format="2">
  <advance width="537"/>
  <unicode hex="FB45"/>
  <outline>
    <contour>
      <point x="236" y="404" type="curve"/>
      <point x="236" y="404.5" type="line"/>
      <point x="257" y="404.5"/>
      <point x="274" y="387.5"/>
      <point x="274" y="366.5" type="curve" smooth="yes"/>
      <point x="274" y="345.5"/>
      <point x="257" y="328.5"/>
      <point x="236" y="328.5" type="curve" smooth="yes"/>
      <point x="215" y="328.5"/>
      <point x="198" y="345.5"/>
      <point x="198" y="366.5" type="curve" smooth="yes"/>
      <point x="198" y="387.5"/>
      <point x="215" y="404.5"/>
    </contour>
    <contour>
      <point x="190" y="134.5" type="curve"/>
      <point x="189.89" y="135" type="line"/>
      <point x="205.89" y="51"/>
      <point x="223.89" y="-86"/>
      <point x="221.89" y="-127" type="curve" smooth="yes"/>
      <point x="218.89" y="-169"/>
      <point x="203.89" y="-210"/>
      <point x="172.89" y="-262" type="curve" smooth="yes"/>
      <point x="155.89" y="-289"/>
      <point x="131.89" y="-282"/>
      <point x="133.89" y="-256" type="curve" smooth="yes"/>
      <point x="136.89" y="-191"/>
      <point x="137.89" y="-112"/>
      <point x="135.89" y="-23" type="curve" smooth="yes"/>
      <point x="132.89" y="76"/>
      <point x="119.89" y="132"/>
      <point x="117.89" y="232" type="curve" smooth="yes"/>
      <point x="116.89" y="299"/>
      <point x="122.89" y="347"/>
      <point x="152.89" y="415" type="curve" smooth="yes"/>
      <point x="155.89" y="422"/>
      <point x="155.89" y="430"/>
      <point x="144.89" y="431" type="curve" smooth="yes"/>
      <point x="123.89" y="434"/>
      <point x="108.89" y="435"/>
      <point x="85.8896" y="446" type="curve" smooth="yes"/>
      <point x="66.8896" y="455"/>
      <point x="47.8896" y="474"/>
      <point x="40.8896" y="493" type="curve" smooth="yes"/>
      <point x="32.8896" y="514"/>
      <point x="30.8896" y="533"/>
      <point x="31.8896" y="548" type="curve" smooth="yes"/>
      <point x="31.8896" y="571"/>
      <point x="39.8896" y="604"/>
      <point x="45.8896" y="615" type="curve" smooth="yes"/>
      <point x="64.8896" y="648"/>
      <point x="75.8896" y="659"/>
      <point x="95.8896" y="627" type="curve" smooth="yes"/>
      <point x="108.89" y="607"/>
      <point x="134.89" y="604"/>
      <point x="148.89" y="601" type="curve" smooth="yes"/>
      <point x="177.89" y="596"/>
      <point x="193.89" y="589"/>
      <point x="211.89" y="574" type="curve" smooth="yes"/>
      <point x="246.89" y="543"/>
      <point x="236.89" y="475"/>
      <point x="207.89" y="443" type="curve" smooth="yes"/>
      <point x="194.89" y="429"/>
      <point x="188.89" y="416"/>
      <point x="188.89" y="416" type="curve"/>
      <point x="173.89" y="380"/>
      <point x="166.89" y="357"/>
      <point x="163.89" y="324" type="curve" smooth="yes"/>
      <point x="162.89" y="297"/>
      <point x="164.89" y="263"/>
      <point x="171.89" y="229" type="curve" smooth="yes"/>
      <point x="174.89" y="213"/>
      <point x="182.89" y="208"/>
      <point x="192.89" y="221" type="curve" smooth="yes"/>
      <point x="361.89" y="433" type="line" smooth="yes"/>
      <point x="367.89" y="440"/>
      <point x="370.89" y="445"/>
      <point x="358.89" y="455" type="curve" smooth="yes"/>
      <point x="333.89" y="475"/>
      <point x="323.89" y="499"/>
      <point x="322.89" y="532" type="curve" smooth="yes"/>
      <point x="321.89" y="569"/>
      <point x="332.89" y="599"/>
      <point x="359.89" y="629" type="curve" smooth="yes"/>
      <point x="378.89" y="652"/>
      <point x="397.89" y="652"/>
      <point x="405.89" y="629" type="curve" smooth="yes"/>
      <point x="409.89" y="621"/>
      <point x="423.89" y="601"/>
      <point x="443.89" y="589" type="curve" smooth="yes"/>
      <point x="477.89" y="570"/>
      <point x="501.89" y="540"/>
      <point x="503.89" y="504" type="curve" smooth="yes"/>
      <point x="505.89" y="466"/>
      <point x="495.89" y="442"/>
      <point x="472.89" y="413" type="curve" smooth="yes"/>
      <point x="461.89" y="398"/>
      <point x="443.89" y="380"/>
      <point x="432.89" y="393" type="curve" smooth="yes"/>
      <point x="425.89" y="401"/>
      <point x="420.89" y="407"/>
      <point x="412.89" y="413" type="curve" smooth="yes"/>
      <point x="407.89" y="417"/>
      <point x="399.89" y="420"/>
      <point x="390.89" y="409" type="curve" smooth="yes"/>
      <point x="201.89" y="177" type="line"/>
      <point x="193.89" y="162"/>
      <point x="187.89" y="145"/>
    </contour>
  </outline>
</glyph>
<glyph name="uniFB47" format="2">
  <advance width="544"/>
  <unicode hex="FB47"/>
  <outline>
    <contour>
      <point x="296" y="338" type="curve"/>
      <point x="296" y="338.5" type="line"/>
      <point x="317" y="338.5"/>
      <point x="334" y="321.5"/>
      <point x="334" y="300.5" type="curve" smooth="yes"/>
      <point x="334" y="279.5"/>
      <point x="317" y="262.5"/>
      <point x="296" y="262.5" type="curve" smooth="yes"/>
      <point x="275" y="262.5"/>
      <point x="258" y="279.5"/>
      <point x="258" y="300.5" type="curve" smooth="yes"/>
      <point x="258" y="321.5"/>
      <point x="275" y="338.5"/>
    </contour>
    <contour>
      <point x="186" y="600.5" type="curve"/>
      <point x="185.5" y="600.5" type="line"/>
      <point x="217.5" y="596.5"/>
      <point x="395.5" y="612.5"/>
      <point x="466.5" y="538.5" type="curve" smooth="yes"/>
      <point x="536.5" y="466.5"/>
      <point x="532.5" y="230.5"/>
      <point x="507.5" y="158.5" type="curve" smooth="yes"/>
      <point x="496.5" y="126.5"/>
      <point x="460.5" y="82.5"/>
      <point x="411.5" y="61.5" type="curve" smooth="yes"/>
      <point x="344.5" y="33.5"/>
      <point x="238.5" y="41.5"/>
      <point x="211.5" y="-4.5" type="curve" smooth="yes"/>
      <point x="199.5" y="-25.5"/>
      <point x="177.5" y="-15.5"/>
      <point x="176.5" y="10.5" type="curve" smooth="yes"/>
      <point x="176.5" y="18.5"/>
      <point x="177.5" y="31.5"/>
      <point x="184.5" y="48.5" type="curve" smooth="yes"/>
      <point x="201.5" y="88.5"/>
      <point x="237.5" y="115.5"/>
      <point x="317.5" y="141.5" type="curve" smooth="yes"/>
      <point x="381.5" y="162.5"/>
      <point x="429.5" y="152.5"/>
      <point x="464.5" y="191.5" type="curve" smooth="yes"/>
      <point x="502.5" y="233.5"/>
      <point x="500.5" y="352.5"/>
      <point x="462.5" y="395.5" type="curve" smooth="yes"/>
      <point x="408.5" y="456.5"/>
      <point x="181.5" y="429.5"/>
      <point x="119.5" y="446.5" type="curve" smooth="yes"/>
      <point x="62.5" y="462.5"/>
      <point x="55.5" y="496.5"/>
      <point x="50.5" y="518.5" type="curve" smooth="yes"/>
      <point x="41.5" y="559.5"/>
      <point x="49.5" y="597.5"/>
      <point x="64.5" y="628.5" type="curve" smooth="yes"/>
      <point x="75.5" y="650.5"/>
      <point x="86.5" y="649.5"/>
      <point x="95.5" y="631.5" type="curve" smooth="yes"/>
      <point x="112.5" y="596.5"/>
      <point x="148.5" y="604.5"/>
    </contour>
    <contour>
      <point x="133.5" y="346.5" type="curve" smooth="yes"/>
      <point x="108.5" y="299.5"/>
      <point x="105.5" y="276.5"/>
      <point x="105.5" y="242.5" type="curve" smooth="yes"/>
      <point x="102.5" y="142.5"/>
      <point x="131.5" y="0.5"/>
      <point x="130.5" y="-83.5" type="curve" smooth="yes"/>
      <point x="129.5" y="-155.5"/>
      <point x="127.5" y="-222.5"/>
      <point x="80.5" y="-287.5" type="curve" smooth="yes"/>
      <point x="53.5" y="-324.5"/>
      <point x="41.5" y="-323.5"/>
      <point x="45.5" y="-283.5" type="curve" smooth="yes"/>
      <point x="55.5" y="-167.5"/>
      <point x="45.5" y="-125.5"/>
      <point x="46.5" y="-19.5" type="curve" smooth="yes"/>
      <point x="47.5" y="76.5"/>
      <point x="39.5" y="162.5"/>
      <point x="48.5" y="227.5" type="curve" smooth="yes"/>
      <point x="55.5" y="274.5"/>
      <point x="73.5" y="323.5"/>
      <point x="104.5" y="358.5" type="curve" smooth="yes"/>
      <point x="131.5" y="389.5"/>
      <point x="147.5" y="372.5"/>
    </contour>
  </outline>
</glyph>
<glyph name="uniFB48" format="2">
  <advance width="502"/>
  <unicode hex="FB48"/>
  <outline>
    <contour>
      <point x="310" y="338" type="curve"/>
      <point x="310" y="338.5" type="line"/>
      <point x="331" y="338.5"/>
      <point x="348" y="321.5"/>
      <point x="348" y="300.5" type="curve" smooth="yes"/>
      <point x="348" y="279.5"/>
      <point x="331" y="262.5"/>
      <point x="310" y="262.5" type="curve" smooth="yes"/>
      <point x="289" y="262.5"/>
      <point x="272" y="279.5"/>
      <point x="272" y="300.5" type="curve" smooth="yes"/>
      <point x="272" y="321.5"/>
      <point x="289" y="338.5"/>
    </contour>
    <contour>
      <point x="427" y="344.5" type="curve" smooth="yes"/>
      <point x="427" y="394.5"/>
      <point x="389" y="440.5"/>
      <point x="331" y="440.5" type="curve" smooth="yes"/>
      <point x="108" y="440.5" type="line" smooth="yes"/>
      <point x="63" y="440.5"/>
      <point x="38" y="492.5"/>
      <point x="34" y="514.5" type="curve" smooth="yes"/>
      <point x="27" y="548.5"/>
      <point x="37" y="597.5"/>
      <point x="52" y="628.5" type="curve" smooth="yes"/>
      <point x="63" y="650.5"/>
      <point x="74" y="649.5"/>
      <point x="83" y="631.5" type="curve" smooth="yes"/>
      <point x="100" y="596.5"/>
      <point x="135" y="600.5"/>
      <point x="173" y="600.5" type="curve" smooth="yes"/>
      <point x="306" y="600.5" type="line" smooth="yes"/>
      <point x="394" y="600.5"/>
      <point x="440" y="539.5"/>
      <point x="452" y="440.5" type="curve" smooth="yes"/>
      <point x="460" y="372.5"/>
      <point x="465" y="208.5"/>
      <point x="470" y="154.5" type="curve" smooth="yes"/>
      <point x="472" y="132.5"/>
      <point x="476" y="72.5"/>
      <point x="457" y="20.5" type="curve" smooth="yes"/>
      <point x="443" y="-18.5"/>
      <point x="412" y="-7.5"/>
      <point x="414" y="26.5" type="curve" smooth="yes"/>
      <point x="414" y="26.5"/>
      <point x="419" y="215.5"/>
    </contour>
  </outline>
</glyph>
<glyph name="uniFB4C" format="2">
  <advance width="498"/>
  <unicode hex="FB4C"/>
  <outline>
    <contour>
      <point x="152" y="694" type="line" smooth="yes"/>
      <point x="152" y="702"/>
      <point x="159" y="709"/>
      <point x="167" y="709" type="curve" smooth="yes"/>
      <point x="337" y="709" type="line" smooth="yes"/>
      <point x="345" y="709"/>
      <point x="352" y="702"/>
      <point x="352" y="694" type="curve" smooth="yes"/>
      <point x="352" y="669" type="line" smooth="yes"/>
      <point x="352" y="661"/>
      <point x="345" y="654"/>
      <point x="337" y="654" type="curve" smooth="yes"/>
      <point x="167" y="654" type="line" smooth="yes"/>
      <point x="159" y="654"/>
      <point x="152" y="661"/>
      <point x="152" y="669" type="curve" smooth="yes"/>
    </contour>
    <contour>
      <point x="477" y="160" type="line" smooth="yes"/>
      <point x="493" y="160"/>
      <point x="499" y="151"/>
      <point x="493" y="138" type="curve" smooth="yes"/>
      <point x="445" y="21" type="line" smooth="yes"/>
      <point x="440" y="7"/>
      <point x="430" y="0"/>
      <point x="414" y="0" type="curve" smooth="yes"/>
      <point x="40" y="0" type="line" smooth="yes"/>
      <point x="24" y="0"/>
      <point x="18" y="9"/>
      <point x="23" y="22" type="curve" smooth="yes"/>
      <point x="71" y="139" type="line" smooth="yes"/>
      <point x="77" y="153"/>
      <point x="86" y="160"/>
      <point x="102" y="160" type="curve" smooth="yes"/>
      <point x="403" y="160" type="line" smooth="yes"/>
      <point x="412" y="160"/>
      <point x="419" y="161"/>
      <point x="419" y="176" type="curve" smooth="yes"/>
      <point x="421" y="241"/>
      <point x="410" y="362"/>
      <point x="369" y="396" type="curve" smooth="yes"/>
      <point x="290" y="462"/>
      <point x="184" y="429"/>
      <point x="122" y="446" type="curve" smooth="yes"/>
      <point x="65" y="462"/>
      <point x="58" y="496"/>
      <point x="53" y="518" type="curve" smooth="yes"/>
      <point x="44" y="559"/>
      <point x="52" y="597"/>
      <point x="67" y="628" type="curve" smooth="yes"/>
      <point x="78" y="650"/>
      <point x="89" y="649"/>
      <point x="98" y="631" type="curve" smooth="yes"/>
      <point x="115" y="596"/>
      <point x="150" y="602"/>
      <point x="188" y="600" type="curve" smooth="yes"/>
      <point x="239" y="597"/>
      <point x="336" y="601"/>
      <point x="388" y="538" type="curve" smooth="yes"/>
      <point x="447" y="467"/>
      <point x="451" y="323"/>
      <point x="446" y="174" type="curve"/>
      <point x="446" y="174"/>
      <point x="447" y="160"/>
      <point x="461" y="160" type="curve" smooth="yes"/>
    </contour>
  </outline>
</glyph>
<glyph name="uniFB4E" format="2">
  <advance width="491"/>
  <unicode hex="FB4E"/>
  <outline>
    <contour>
      <point x="158" y="694" type="line" smooth="yes"/>
      <point x="158" y="702"/>
      <point x="165" y="709"/>
      <point x="173" y="709" type="curve" smooth="yes"/>
      <point x="343" y="709" type="line" smooth="yes"/>
      <point x="351" y="709"/>
      <point x="358" y="702"/>
      <point x="358" y="694" type="curve" smooth="yes"/>
      <point x="358" y="669" type="line" smooth="yes"/>
      <point x="358" y="661"/>
      <point x="351" y="654"/>
      <point x="343" y="654" type="curve" smooth="yes"/>
      <point x="173" y="654" type="line" smooth="yes"/>
      <point x="165" y="654"/>
      <point x="158" y="661"/>
      <point x="158" y="669" type="curve" smooth="yes"/>
    </contour>
    <contour>
      <point x="154" y="443" type="curve"/>
      <point x="154" y="442.69" type="line"/>
      <point x="131" y="431.69"/>
      <point x="125" y="417.69"/>
      <point x="126" y="399.69" type="curve" smooth="yes"/>
      <point x="128" y="367.69"/>
      <point x="180" y="369.69"/>
      <point x="228" y="370.69" type="curve" smooth="yes"/>
      <point x="259" y="371.69"/>
      <point x="285" y="350.69"/>
      <point x="292" y="316.69" type="curve" smooth="yes"/>
      <point x="299" y="284.69"/>
      <point x="296" y="250.69"/>
      <point x="262" y="229.69" type="curve" smooth="yes"/>
      <point x="228" y="208.69"/>
      <point x="157" y="217.69"/>
      <point x="125" y="223.69" type="curve"/>
      <point x="115" y="216.69"/>
      <point x="105" y="204.69"/>
      <point x="89" y="192.69" type="curve" smooth="yes"/>
      <point x="80" y="185.69"/>
      <point x="68" y="182.69"/>
      <point x="60" y="190.69" type="curve" smooth="yes"/>
      <point x="52" y="198.69"/>
      <point x="56" y="211.69"/>
      <point x="64" y="218.69" type="curve" smooth="yes"/>
      <point x="79" y="231.69"/>
      <point x="78" y="229.69"/>
      <point x="91" y="242.69" type="curve"/>
      <point x="58" y="272.69"/>
      <point x="50" y="300.69"/>
      <point x="54" y="341.69" type="curve" smooth="yes"/>
      <point x="59" y="392.69"/>
      <point x="94" y="426.69"/>
      <point x="125" y="451.69" type="curve"/>
      <point x="83" y="468.69"/>
      <point x="77" y="497.69"/>
      <point x="73" y="517.69" type="curve" smooth="yes"/>
      <point x="64" y="558.69"/>
      <point x="72" y="596.69"/>
      <point x="87" y="627.69" type="curve" smooth="yes"/>
      <point x="98" y="649.69"/>
      <point x="109" y="648.69"/>
      <point x="118" y="630.69" type="curve" smooth="yes"/>
      <point x="135" y="595.69"/>
      <point x="170" y="601.69"/>
      <point x="208" y="599.69" type="curve" smooth="yes"/>
      <point x="259" y="596.69"/>
      <point x="369" y="599.69"/>
      <point x="419" y="528.69" type="curve" smooth="yes"/>
      <point x="466" y="462.69"/>
      <point x="471" y="327.69"/>
      <point x="467" y="184.69" type="curve" smooth="yes"/>
      <point x="466" y="161.69"/>
      <point x="464" y="154.69"/>
      <point x="460" y="143.69" type="curve" smooth="yes"/>
      <point x="409" y="20.6904" type="line" smooth="yes"/>
      <point x="403" y="7.69043"/>
      <point x="394" y="-0.30957"/>
      <point x="378" y="-0.30957" type="curve" smooth="yes"/>
      <point x="34" y="-0.30957" type="line" smooth="yes"/>
      <point x="18" y="-0.30957"/>
      <point x="13" y="8.69043"/>
      <point x="18" y="21.6904" type="curve" smooth="yes"/>
      <point x="66" y="138.69" type="line" smooth="yes"/>
      <point x="72" y="152.69"/>
      <point x="81" y="159.69"/>
      <point x="97" y="159.69" type="curve" smooth="yes"/>
      <point x="420" y="159.69" type="line" smooth="yes"/>
      <point x="429" y="159.69"/>
      <point x="436" y="165.69"/>
      <point x="437" y="175.69" type="curve" smooth="yes"/>
      <point x="438" y="242.69"/>
      <point x="433" y="338.69"/>
      <point x="402" y="381.69" type="curve" smooth="yes"/>
      <point x="344" y="461.69"/>
      <point x="217" y="431.69"/>
    </contour>
  </outline>
</glyph>
<glyph name="uniFB4F" format="2">
  <advance width="593"/>
  <unicode hex="FB4F"/>
  <outline>
    <contour>
      <point x="136" y="554" type="curve" smooth="yes"/>
      <point x="178" y="510"/>
      <point x="207" y="481"/>
      <point x="257" y="440" type="curve" smooth="yes"/>
      <point x="357" y="355" type="line"/>
      <point x="357" y="355"/>
      <point x="368" y="348"/>
      <point x="374" y="359" type="curve" smooth="yes"/>
      <point x="374" y="359"/>
      <point x="398" y="404"/>
      <point x="404" y="416" type="curve" smooth="yes"/>
      <point x="409" y="426"/>
      <point x="406" y="437"/>
      <point x="398" y="443" type="curve" smooth="yes"/>
      <point x="369" y="468"/>
      <point x="355" y="483"/>
      <point x="348" y="521" type="curve" smooth="yes"/>
      <point x="344" y="545"/>
      <point x="352" y="580"/>
      <point x="358" y="592" type="curve" smooth="yes"/>
      <point x="369" y="615"/>
      <point x="382" y="627"/>
      <point x="396" y="636" type="curve" smooth="yes"/>
      <point x="428" y="655"/>
      <point x="426" y="640"/>
      <point x="441" y="609" type="curve" smooth="yes"/>
      <point x="446" y="598"/>
      <point x="456" y="590"/>
      <point x="467" y="583" type="curve" smooth="yes"/>
      <point x="491" y="568"/>
      <point x="536" y="545"/>
      <point x="548" y="502" type="curve" smooth="yes"/>
      <point x="563" y="449"/>
      <point x="546" y="416"/>
      <point x="529" y="380" type="curve" smooth="yes"/>
      <point x="522" y="364"/>
      <point x="506" y="351"/>
      <point x="499" y="362" type="curve" smooth="yes"/>
      <point x="489" y="378"/>
      <point x="475" y="391"/>
      <point x="458" y="401" type="curve" smooth="yes"/>
      <point x="449" y="406"/>
      <point x="437" y="404"/>
      <point x="432" y="394" type="curve" smooth="yes"/>
      <point x="402" y="338" type="line"/>
      <point x="402" y="338"/>
      <point x="397" y="326"/>
      <point x="406" y="319" type="curve" smooth="yes"/>
      <point x="488" y="252"/>
      <point x="538" y="207"/>
      <point x="544" y="124" type="curve" smooth="yes"/>
      <point x="547" y="82"/>
      <point x="530" y="35"/>
      <point x="499" y="10" type="curve" smooth="yes"/>
      <point x="463" y="-19"/>
      <point x="462" y="21"/>
      <point x="459" y="50" type="curve" smooth="yes"/>
      <point x="454" y="102"/>
      <point x="345" y="185"/>
      <point x="259" y="257" type="curve" smooth="yes"/>
      <point x="215" y="294"/>
      <point x="154" y="348"/>
      <point x="124" y="376" type="curve" smooth="yes"/>
      <point x="99" y="400"/>
      <point x="62" y="440"/>
      <point x="56" y="474" type="curve" smooth="yes"/>
      <point x="53" y="489"/>
      <point x="52" y="503"/>
      <point x="52" y="516" type="curve" smooth="yes"/>
      <point x="52" y="622"/>
      <point x="49" y="687"/>
      <point x="60" y="719" type="curve" smooth="yes"/>
      <point x="74" y="760"/>
      <point x="98" y="768"/>
      <point x="97" y="784" type="curve" smooth="yes"/>
      <point x="96" y="800"/>
      <point x="67" y="814"/>
      <point x="61" y="826" type="curve" smooth="yes"/>
      <point x="57" y="834"/>
      <point x="58" y="858"/>
      <point x="60" y="874" type="curve" smooth="yes"/>
      <point x="62" y="890"/>
      <point x="65" y="902"/>
      <point x="85" y="899" type="curve" smooth="yes"/>
      <point x="136" y="891"/>
      <point x="161" y="833"/>
      <point x="161" y="812" type="curve" smooth="yes"/>
      <point x="161" y="787"/>
      <point x="118" y="756"/>
      <point x="106" y="737" type="curve" smooth="yes"/>
      <point x="94" y="718"/>
      <point x="96" y="698"/>
      <point x="96" y="652" type="curve" smooth="yes"/>
      <point x="96" y="612"/>
      <point x="108" y="584"/>
    </contour>
  </outline>
</glyph>
